<?xml version="1.0" standalone="no"?>
<!DOCTYPE svg PUBLIC "-//W3C//DTD SVG 20010904//EN"
 "http://www.w3.org/TR/2001/REC-SVG-20010904/DTD/svg10.dtd">
<svg version="1.0" xmlns="http://www.w3.org/2000/svg"
 width="360.000000pt" height="290.000000pt" viewBox="0 0 360.000000 290.000000"
 preserveAspectRatio="xMidYMid meet">

<g transform="translate(0.000000,290.000000) scale(0.100000,-0.100000)"
fill="#000000" stroke="none">
<path d="M1176 2873 c-3 -4 -6 -14 -6 -24 0 -28 -13 -30 -58 -8 -40 20 -42 20
-189 3 -81 -9 -150 -19 -152 -21 -3 -2 -10 -54 -17 -115 -11 -110 -11 -113 11
-143 19 -26 42 -95 31 -95 -3 0 -75 11 -162 25 -86 13 -161 22 -166 19 -4 -3
-8 -11 -8 -19 0 -9 -19 -16 -58 -20 -196 -22 -333 -119 -377 -269 -18 -59 -20
-184 -4 -241 6 -22 31 -75 56 -117 l45 -78 -36 -190 c-20 -104 -36 -199 -36
-210 0 -12 35 -66 78 -121 73 -94 81 -101 147 -128 112 -46 214 -65 319 -58
169 11 281 70 368 197 17 24 17 18 15 -140 -1 -142 1 -171 17 -208 17 -39 17
-44 2 -61 -28 -31 -15 -160 26 -248 41 -88 131 -161 240 -197 16 -5 16 -9 4
-51 -8 -25 -13 -45 -13 -46 1 0 72 -17 157 -39 l155 -38 108 -114 108 -113
110 114 110 114 150 37 c83 21 152 40 155 42 2 2 -1 20 -6 39 -13 45 -13 59 3
59 6 0 39 13 72 29 119 56 193 173 203 322 3 61 1 78 -12 92 -15 15 -15 20 4
76 11 33 20 85 20 116 l0 55 98 0 c55 0 117 -6 144 -14 80 -25 176 -29 254
-13 138 29 193 74 331 268 87 122 108 167 124 262 16 100 -17 223 -77 288
l-24 25 76 218 c44 123 73 221 68 225 -5 5 -92 29 -193 56 -158 40 -186 45
-195 32 -8 -10 -40 -16 -111 -19 -60 -3 -116 -12 -139 -22 -22 -9 -40 -15 -42
-13 -2 1 5 30 15 62 11 33 17 63 14 68 -2 4 -36 7 -75 7 l-71 0 7 123 c4 67 9
136 12 153 l6 31 -91 7 c-76 6 -89 10 -84 23 5 13 -1 15 -38 10 -24 -4 -86 -9
-136 -13 -69 -5 -93 -10 -93 -20 0 -18 -16 -18 -23 -1 -7 19 -207 1 -222 -20
-11 -14 -12 -14 -18 0 -4 11 -15 15 -39 12 -18 -2 -61 -7 -95 -9 l-62 -6 -6
32 -7 31 -142 -7 c-190 -9 -206 -12 -206 -42 l0 -23 -36 24 c-19 13 -54 26
-77 29 -74 9 -255 15 -261 9z m304 -78 c89 -53 101 -197 22 -268 -20 -18 -20
-18 11 -87 17 -38 29 -72 26 -74 -2 -2 -38 -1 -79 2 l-75 7 -19 54 c-16 43
-21 50 -27 35 -4 -10 -8 -36 -8 -56 -1 -42 -3 -43 -86 -31 l-48 6 8 152 c6
132 5 153 -9 158 -15 6 -12 28 18 122 2 6 46 8 117 5 90 -4 121 -9 149 -25z
m450 -186 c39 -122 70 -222 68 -224 -2 -2 -34 -5 -73 -7 l-69 -3 -9 31 c-9 30
-10 31 -60 27 -71 -6 -73 -7 -80 -41 -6 -30 -7 -30 -77 -34 -40 -1 -73 -2 -74
0 -3 2 44 247 59 310 4 17 1 22 -15 22 -20 0 -21 4 -14 48 12 88 -6 80 226 90
l46 2 72 -221z m611 -10 c-41 -253 -31 -236 -146 -240 l-68 -2 -24 69 c-14 38
-29 73 -33 77 -4 5 -13 -28 -20 -72 -15 -91 -11 -88 -129 -93 l-64 -3 -69 214
c-38 117 -67 215 -64 218 2 3 40 7 83 10 l79 6 28 -82 c16 -44 30 -81 31 -81
2 0 9 33 15 74 7 40 16 79 19 85 4 6 36 14 72 17 l65 6 18 -58 c37 -118 37
-118 56 -24 l16 85 40 6 c21 3 60 7 85 8 l45 1 -35 -221z m-1418 170 c34 -37
38 -103 7 -141 l-19 -25 29 -21 c57 -43 64 -136 12 -185 -30 -29 -78 -41 -208
-52 l-81 -7 -7 68 c-18 183 -29 244 -43 244 -11 0 -13 12 -7 63 4 34 7 63 8
64 6 7 226 30 251 26 17 -2 42 -18 58 -34z m1582 24 l47 -6 -6 -101 c-4 -56
-9 -125 -12 -153 l-6 -53 71 0 c39 0 71 -3 71 -7 0 -13 -36 -122 -41 -128 -3
-3 -59 -2 -124 1 l-118 7 7 106 c4 58 9 130 12 159 5 45 4 52 -11 52 -13 0
-15 6 -11 28 2 15 7 44 11 65 7 41 15 44 110 30z m-808 -1479 l109 -116 157
-38 c87 -20 160 -39 162 -42 3 -2 -16 -74 -41 -160 l-45 -155 45 -153 c25 -85
45 -155 43 -156 -1 -1 -45 22 -97 52 -52 29 -97 54 -100 54 -3 0 -20 -19 -38
-41 -65 -85 -151 -133 -275 -154 l-38 -6 3 -110 c2 -60 0 -109 -4 -109 -3 0
-55 51 -115 114 l-109 114 -155 37 c-85 21 -157 40 -160 44 -4 3 14 75 39 159
l45 152 -43 148 c-24 81 -45 152 -47 159 -3 7 51 24 158 50 l161 38 111 118
c60 64 113 117 117 117 5 0 57 -52 117 -116z m-780 -145 l50 -20 51 -174 51
-173 -43 -147 c-24 -80 -46 -148 -49 -152 -10 -9 -60 36 -90 79 -34 52 -57
127 -57 191 l0 50 46 -7 46 -6 -28 33 c-48 56 -74 125 -74 195 0 75 18 152 35
152 7 0 35 -9 62 -21z m1414 -21 c7 -24 12 -73 11 -109 0 -77 -22 -136 -72
-192 l-32 -37 47 7 48 6 -5 -74 c-3 -43 -13 -93 -25 -120 -20 -45 -91 -129
-110 -129 -5 0 -30 68 -54 152 l-45 152 50 173 50 172 51 20 c27 11 55 20 62
20 7 1 18 -18 24 -41z"/>
<path d="M1340 2650 c0 -40 1 -41 31 -38 39 4 59 30 43 56 -6 9 -25 18 -43 20
-30 3 -31 2 -31 -38z"/>
<path d="M1760 2670 c-1 -3 -7 -31 -14 -62 l-12 -58 33 0 c18 0 33 1 33 3 -1
8 -39 121 -40 117z"/>
<path d="M950 2663 c0 -28 15 -45 36 -41 13 2 19 12 19 28 0 20 -6 26 -27 28
-22 3 -28 -1 -28 -15z"/>
<path d="M974 2515 c-11 -29 5 -65 29 -65 25 0 47 17 47 36 0 35 -65 59 -76
29z"/>
<path d="M1675 1177 c-189 -63 -308 -243 -275 -417 32 -168 155 -291 322 -320
205 -36 404 111 441 326 27 154 -66 316 -223 391 -66 32 -199 42 -265 20z
m241 -81 c108 -49 174 -145 182 -261 3 -62 1 -76 -25 -125 -20 -39 -42 -64
-75 -85 -36 -23 -47 -36 -47 -56 -1 -46 -17 -50 -177 -47 l-149 3 -3 33 c-2
23 -11 36 -31 46 -45 24 -109 101 -121 148 -41 149 74 327 237 368 56 14 149
3 209 -24z"/>
<path d="M1687 893 c-4 -3 -7 -10 -7 -14 0 -15 47 -59 63 -59 29 0 29 21 1 51
-27 29 -44 35 -57 22z"/>
<path d="M1827 872 c-31 -32 -35 -52 -10 -52 23 0 73 49 66 66 -8 21 -27 17
-56 -14z"/>
<path d="M1581 823 c-66 -61 -30 -163 57 -163 86 0 125 99 63 161 -38 38 -80
39 -120 2z"/>
<path d="M1869 821 c-62 -62 -23 -161 63 -161 56 0 88 34 88 94 0 37 -5 48
-31 70 -41 35 -83 34 -120 -3z"/>
<path d="M1760 685 c-12 -20 -20 -38 -17 -41 3 -3 23 -4 45 -2 l41 3 -23 38
-24 38 -22 -36z"/>
</g>
</svg>
