<?xml version="1.0" encoding="UTF-8"?>
<svg version="1.1" xmlns="http://www.w3.org/2000/svg" width="360" height="290">
<path d="M0 0 C118.8 0 237.6 0 360 0 C360 95.7 360 191.4 360 290 C241.2 290 122.4 290 0 290 C0 194.3 0 98.6 0 0 Z " fill="#050303" transform="translate(0,0)"/>
<path d="M0 0 C118.8 0 237.6 0 360 0 C360 95.7 360 191.4 360 290 C241.2 290 122.4 290 0 290 C0 194.3 0 98.6 0 0 Z M117 2 C116.67 3.98 116.34 5.96 116 8 C114.989375 7.319375 113.97875 6.63875 112.9375 5.9375 C106.5431778 2.75719564 99.848935 4.1737894 93 5 C91.50266552 5.16462153 90.00526859 5.32867589 88.5078125 5.4921875 C81.75991641 5.70520927 81.75991641 5.70520927 76 8 C75.15909098 14.11475815 74.90927007 20.33397293 74.75 26.5 C74.72421875 27.4590625 74.6984375 28.418125 74.671875 29.40625 C75.06359438 32.50269842 76.12071375 33.55510333 78 36 C78.7039526 38.32235648 79.37409474 40.65540377 80 43 C79.1121582 42.84329834 78.22431641 42.68659668 77.30957031 42.52514648 C74.0082368 41.94648432 70.70580072 41.37519892 67.40234375 40.80883789 C65.97409939 40.56242686 64.54635412 40.31310431 63.11914062 40.06079102 C61.06505284 39.69817872 59.00938525 39.34614855 56.953125 38.99609375 C55.71723633 38.78138428 54.48134766 38.5666748 53.20800781 38.34545898 C50.36377289 38.03917341 48.65273658 38.04721579 46 39 C46 39.99 46 40.98 46 42 C45.11699219 42.02578125 44.23398437 42.0515625 43.32421875 42.078125 C29.99472207 42.70809047 20.04908152 45.96063481 10 55 C3.06101317 62.97064882 0.42943366 72.07435763 0.5625 82.5 C0.57007324 83.33660156 0.57764648 84.17320313 0.58544922 85.03515625 C0.78480301 92.47381753 2.52700756 97.33095747 6.671875 103.48046875 C11.28519739 110.8131119 11.3601818 115.43618224 9.48242188 123.79638672 C8.70929256 127.32789744 8.0669618 130.88255998 7.41552734 134.43823242 C7.06257523 136.35587513 6.69878767 138.27156398 6.32275391 140.18481445 C5.82641187 142.78464564 5.38996895 145.3822297 5 148 C4.88914062 148.71027344 4.77828125 149.42054688 4.6640625 150.15234375 C4.20173853 155.52160625 6.1435116 158.28040584 9.42578125 162.1953125 C10.32876953 163.21238281 10.32876953 163.21238281 11.25 164.25 C12.12978516 165.29027344 12.12978516 165.29027344 13.02734375 166.3515625 C14.65616655 168.26222655 16.31995315 170.13441988 18 172 C18.65226562 172.75539062 19.30453125 173.51078125 19.9765625 174.2890625 C22.73761151 176.62369467 25.78397811 177.85553721 29.125 179.125 C29.79732666 179.38361816 30.46965332 179.64223633 31.16235352 179.90869141 C46.84992261 185.78659396 63.26420994 185.72978822 79 180 C86.18072003 176.28258924 93.32157681 170.35684639 97 163 C96.98428955 163.83136475 96.9685791 164.66272949 96.95239258 165.51928711 C96.90084167 168.64475136 96.86344645 171.76999675 96.83520508 174.89575195 C96.81294542 176.89744576 96.77479854 178.89894275 96.73632812 180.90039062 C96.68660188 187.48083012 96.76391598 193.09179632 99.44799805 199.17016602 C100.14063653 201.46619671 99.79757523 202.76684912 99 205 C98.67 205.33 98.34 205.66 98 206 C96.87898963 216.65878714 98.8447089 227.20167964 105.25 235.9375 C110.10975481 241.60894833 116.03528243 246.21411297 123 249 C124.65 249 126.3 249 128 249 C127.01 252.3 126.02 255.6 125 259 C129.70596464 260.66599766 134.2999172 262.13358065 139.19140625 263.140625 C140.51495117 263.41712891 140.51495117 263.41712891 141.86523438 263.69921875 C143.66416752 264.06656064 145.46639196 264.41813563 147.27148438 264.75390625 C154.18107889 266.23994925 158.13606541 268.94412595 163 274 C163.95628296 274.97670654 163.95628296 274.97670654 164.93188477 275.97314453 C166.81663318 277.93659461 168.663181 279.92921828 170.5 281.9375 C171.13164062 282.62134766 171.76328125 283.30519531 172.4140625 284.00976562 C173.94642321 285.66982306 175.47497343 287.33320769 177 289 C180.06646959 287.63212231 182.17026813 286.07686868 184.53125 283.69921875 C185.49998047 282.72758789 185.49998047 282.72758789 186.48828125 281.73632812 C187.15214844 281.06021484 187.81601563 280.38410156 188.5 279.6875 C189.16386719 279.02298828 189.82773438 278.35847656 190.51171875 277.67382812 C194.4060977 273.75398064 194.4060977 273.75398064 197.78613281 269.39501953 C200.66427807 266.28136658 202.83553819 265.87028624 206.953125 264.98046875 C207.61334656 264.83217117 208.27356812 264.6838736 208.95379639 264.53108215 C211.04898838 264.06484131 213.14882293 263.6258872 215.25 263.1875 C216.67747612 262.8748348 218.10456583 262.56039986 219.53125 262.24414062 C223.01659592 261.4755606 226.50662361 260.73132662 230 260 C231.31538327 255.84228506 230.34433068 253.1120703 229 249 C229.804375 248.938125 230.60875 248.87625 231.4375 248.8125 C239.37172791 247.00293925 246.01747767 242.39899999 251 236 C256.89804781 226.56625245 258.81185104 217.04495014 258 206 C257.67 205.34 257.34 204.68 257 204 C256.34 204 255.68 204 255 204 C255.28875 203.27296875 255.5775 202.5459375 255.875 201.796875 C258.6429339 194.30038734 259.50830587 187.96345856 259 180 C278.43490548 180.55692911 278.43490548 180.55692911 285.3125 182.5625 C297.63845178 186.06932008 310.22053006 184.52356835 321.5625 178.6796875 C331.3379931 172.63605494 337.42864538 162.88613061 343.86035156 153.62744141 C344.84460643 152.22190521 345.85366595 150.83379945 346.8671875 149.44921875 C354.39007282 138.91343658 355.79288789 126.68180331 354 114 C352.06144517 108.08679815 349.45827243 103.32996004 345 99 C347.09943594 90.77488342 349.72110517 82.80826847 352.5625 74.8125 C355.0088901 67.9238765 357.38806109 61.13609712 359 54 C353.33838194 52.31584779 347.67134522 50.65109503 342 49 C341.17790039 48.75991211 340.35580078 48.51982422 339.50878906 48.27246094 C337.09130393 47.56987036 334.6711639 46.87729385 332.25 46.1875 C331.50057129 45.96876221 330.75114258 45.75002441 329.97900391 45.5246582 C326.2344691 44.46845287 322.89856741 43.73139791 319 44 C319 44.99 319 45.98 319 47 C317.97261719 46.96519531 316.94523437 46.93039063 315.88671875 46.89453125 C306.8384341 46.68336814 298.29862697 46.85068652 290 51 C290.28875 50.15695313 290.5775 49.31390625 290.875 48.4453125 C291.24625 47.34960938 291.6175 46.25390625 292 45.125 C292.37125 44.03445312 292.7425 42.94390625 293.125 41.8203125 C294.098772 39.17379146 294.098772 39.17379146 294 37 C289.05 37 284.1 37 279 37 C279.66 26.77 280.32 16.54 281 6 C275.39 5.67 269.78 5.34 264 5 C264 4.01 264 3.02 264 2 C254.97736473 2.49195343 245.98382735 3.00179696 237 4 C237 4.99 237 5.98 237 7 C236.34 7 235.68 7 235 7 C235 6.34 235 5.68 235 5 C232.64575325 4.97273073 230.29183038 4.95303281 227.9375 4.9375 C226.62652344 4.92589844 225.31554687 4.91429687 223.96484375 4.90234375 C217.27965979 5.00247392 217.27965979 5.00247392 211 7 C207.52237791 7.07133584 204.05579541 6.99669439 200.578125 6.9375 C197.26782062 6.99532191 194.24284193 7.36336846 191 8 C190.67 6.02 190.34 4.04 190 2 C178.2187584 1.64359269 166.69975746 2.74059296 155 4 C154.67 5.32 154.34 6.64 154 8 C153.113125 7.360625 152.22625 6.72125 151.3125 6.0625 C146.53462451 3.08759639 142.37531103 2.87501073 136.82421875 2.68359375 C135.66728516 2.64169922 134.51035156 2.59980469 133.31835938 2.55664062 C132.12017578 2.51732422 130.92199219 2.47800781 129.6875 2.4375 C128.46998047 2.39431641 127.25246094 2.35113281 125.99804688 2.30664062 C122.9988053 2.20078504 119.99948409 2.09870274 117 2 Z " fill="#F5F5F5" transform="translate(0,0)"/>
<path d="M0 0 C8.63075744 0.69046059 16.81240586 3.27080195 25 6 C24.38773827 10.17426443 23.45483304 14.04384746 22.15234375 18.0546875 C21.79462891 19.16328125 21.43691406 20.271875 21.06835938 21.4140625 C20.69517578 22.55617188 20.32199219 23.69828125 19.9375 24.875 C19.37192383 26.62296875 19.37192383 26.62296875 18.79492188 28.40625 C17.86705064 31.27208016 16.935297 34.13658648 16 37 C12.48067825 35.85108465 9.19631456 34.69739369 5.9375 32.9375 C-0.06088708 29.89303561 -5.37699855 29.87013723 -12 30 C-12 31.65 -12 33.3 -12 35 C-10.97261719 35.49628906 -9.94523438 35.99257812 -8.88671875 36.50390625 C17.51712914 49.38320878 17.51712914 49.38320878 22.12890625 60.79296875 C24.4058184 69.17568119 24.14125051 78.82467988 20.3828125 86.72265625 C14.69451881 96.09066535 7.3413116 101.42301411 -3.1875 104.3125 C-18.68435627 107.08562165 -32.63781652 104.05863643 -46 96 C-45.67 97.32 -45.34 98.64 -45 100 C-54.57 100 -64.14 100 -74 100 C-75.32 96.7 -76.64 93.4 -78 90 C-78.40605469 88.99066406 -78.81210938 87.98132813 -79.23046875 86.94140625 C-79.54628906 86.15636719 -79.86210937 85.37132812 -80.1875 84.5625 C-80.51105469 83.75941406 -80.83460938 82.95632812 -81.16796875 82.12890625 C-81.82880768 80.43802729 -82.42591118 78.72226647 -83 77 C-83.66 83.93 -84.32 90.86 -85 98 C-100.51 98 -116.02 98 -132 98 C-132.66 94.04 -133.32 90.08 -134 86 C-141.59 86 -149.18 86 -157 86 C-157.99 89.96 -158.98 93.92 -160 98 C-169.24 98 -178.48 98 -188 98 C-186.3903422 89.95171101 -184.59031695 82.02083629 -182.59594727 74.06811523 C-182.06288594 71.93904147 -181.53614216 69.80846937 -181.00976562 67.67773438 C-179.42022354 61.2916867 -177.77259553 54.97268808 -175.59643555 48.75561523 C-174.84853542 46.55416218 -174.32832521 44.34148947 -173.875 42.0625 C-173.41907004 39.79484836 -173.03699133 38.07398266 -172 36 C-174.31 36 -176.62 36 -179 36 C-178.24377531 28.1352632 -176.49922476 20.49767428 -174 13 C-157.83 13 -141.66 13 -125 13 C-123.948125 17.41375 -122.89625 21.8275 -121.8125 26.375 C-119.41249494 36.37790818 -116.88841091 46.32234809 -114.06640625 56.21484375 C-112.59209234 61.44784805 -111.2745581 66.71524692 -110 72 C-109.22461368 67.81125824 -108.82545987 63.76379599 -108.68359375 59.5078125 C-108.64169922 58.30898437 -108.59980469 57.11015625 -108.55664062 55.875 C-108.51732422 54.6375 -108.47800781 53.4 -108.4375 52.125 C-108.39431641 50.86429688 -108.35113281 49.60359375 -108.30664062 48.3046875 C-108.20090898 45.20322577 -108.09881429 42.10168855 -108 39 C-109.65 39 -111.3 39 -113 39 C-111.56933303 30.8301386 -109.35862583 22.94605012 -107 15 C-60.87954831 14.57788942 -60.87954831 14.57788942 -50.59375 24.37890625 C-49.80484375 25.18134766 -49.80484375 25.18134766 -49 26 C-48.01 26.99 -48.01 26.99 -47 28 C-46.85304688 27.3709375 -46.70609375 26.741875 -46.5546875 26.09375 C-43.93559543 16.09905384 -38.87797428 9.37125997 -30 4 C-26.45568912 2.36448227 -23.70038634 1.7512668 -19.8046875 1.76953125 C-18.84175781 1.77146484 -17.87882813 1.77339844 -16.88671875 1.77539062 C-15.89285156 1.78763672 -14.89898437 1.79988281 -13.875 1.8125 C-12.87339844 1.81314453 -11.87179687 1.81378906 -10.83984375 1.81445312 C-3.42222744 1.85925752 -3.42222744 1.85925752 0 3 C0 2.01 0 1.02 0 0 Z " fill="#EE1717" transform="translate(324,53)"/>
<path d="M0 0 C3.91209308 1.59415503 6.37218086 4.13893332 9.3125 7.125 C9.79452881 7.61347412 10.27655762 8.10194824 10.77319336 8.60522461 C14.20022068 12.10554508 17.48630831 15.70883692 20.66015625 19.44140625 C23.72906022 23.01135576 25.84634378 23.62168188 30.43359375 24.69140625 C31.06733414 24.841577 31.70107452 24.99174774 32.35401917 25.14646912 C34.38032191 25.62526038 36.40875411 26.09418 38.4375 26.5625 C40.46215899 27.03638705 42.48633264 27.51227994 44.51026917 27.98924255 C46.34904676 28.42152969 48.18902364 28.84870603 50.02905273 29.27563477 C53 30 53 30 56 31 C55.00740393 35.79268202 53.90679504 40.45635389 52.421875 45.12109375 C52.14859375 45.99443359 51.8753125 46.86777344 51.59375 47.76757812 C51.03093276 49.54852991 50.45274663 51.32469702 49.859375 53.09570312 C47.82889017 59.71918369 48.05396532 64.39287763 50 71 C50.24363281 71.8561792 50.48726563 72.7123584 50.73828125 73.59448242 C51.76567166 77.08767502 52.86572768 80.55618184 53.96484375 84.02734375 C54.22652344 84.87167969 54.48820312 85.71601563 54.7578125 86.5859375 C54.9964502 87.3392334 55.23508789 88.0925293 55.48095703 88.86865234 C56 91 56 91 56 95 C54.29457031 95.36351562 54.29457031 95.36351562 52.5546875 95.734375 C49.31911126 96.42869408 46.09425993 97.16047353 42.87109375 97.91015625 C39.99841812 98.57522554 37.20694815 99.11924965 34.28515625 99.55859375 C20.56446265 102.13622697 11.16195365 114.36408631 3 125 C-0.57460144 124.42070895 -2.23136626 123.13448621 -4.75 120.578125 C-5.4409375 119.88203125 -6.131875 119.1859375 -6.84375 118.46875 C-7.5553125 117.7365625 -8.266875 117.004375 -9 116.25 C-9.7115625 115.53328125 -10.423125 114.8165625 -11.15625 114.078125 C-16.68519359 108.46665987 -16.68519359 108.46665987 -18.75878906 105.39282227 C-21.67219884 102.28232888 -24.58292615 101.61837862 -28.609375 100.76171875 C-29.33618469 100.59122513 -30.06299438 100.42073151 -30.81182861 100.24507141 C-33.12082169 99.70777037 -35.43481023 99.19736148 -37.75 98.6875 C-39.32202005 98.32663155 -40.89364098 97.96401976 -42.46484375 97.59960938 C-46.30556812 96.71282088 -50.15099381 95.8500892 -54 95 C-52.66854472 87.41679781 -50.59875913 80.36281831 -47.94726562 73.14453125 C-44.44107554 62.82217114 -47.30020981 54.06464972 -50.5625 44 C-51.21189308 41.95905031 -51.8591432 39.91741711 -52.50390625 37.875 C-52.79080322 36.98554688 -53.0777002 36.09609375 -53.37329102 35.1796875 C-54 33 -54 33 -54 31 C-52.37475095 30.59368774 -50.74942496 30.1876815 -49.1237793 29.78295898 C-47.68907539 29.42292236 -46.25566044 29.05771576 -44.82348633 28.68774414 C-41.14915087 27.7460481 -37.49900744 26.88351077 -33.76171875 26.23046875 C-23.10349917 24.24306379 -17.85449068 20.28728555 -11 12 C-9.68895165 10.51954652 -8.37663774 9.04021184 -7.0625 7.5625 C-6.52625 6.93472656 -5.99 6.30695313 -5.4375 5.66015625 C-3.71819357 3.6745442 -1.89435001 1.81857601 0 0 Z " fill="#FABD20" transform="translate(177,147)"/>
<path d="M0 0 C10.18886891 0.51387339 19.9939515 2.09465663 30 4 C27.43980534 14.36334114 24.7837255 24.69429284 22 35 C19.56201552 34.52319861 17.12462484 34.04365871 14.6875 33.5625 C13.99720703 33.42779297 13.30691406 33.29308594 12.59570312 33.15429688 C9.65710993 32.57225668 6.84543315 31.94847772 4 31 C-1.26571469 30.60258757 -4.4443154 31.3332578 -9 34 C-9 34.99 -9 35.98 -9 37 C-7.44238827 37.62692257 -5.88465818 38.2535523 -4.32641602 38.87890625 C-2.97090107 39.42314986 -1.61592941 39.96874836 -0.26147461 40.515625 C4.10777914 42.27169848 8.50686784 43.90351635 12.9375 45.5 C21.75937183 48.90968052 27.88534805 53.32414473 32 62 C35.19257017 69.94770108 35.7316718 80.98594609 32.375 89 C31.25390625 91.05078125 31.25390625 91.05078125 30 93 C29.57589844 93.69480469 29.15179688 94.38960938 28.71484375 95.10546875 C23.18688715 103.3127135 15.33089156 107.67833858 5.91796875 110.3046875 C-9.77826782 113.09026089 -24.82014309 111.37521619 -39 104 C-38.51739376 93.47918394 -36.17218433 83.27221291 -34 73 C-30.77988085 73.76843753 -27.69734358 74.79058422 -24.56665039 75.86669922 C-16.99130196 78.41717093 -10.08402171 80.02329389 -2 79 C-0.70366379 77.93354885 -0.70366379 77.93354885 -0.9375 75.4375 C-0.958125 74.633125 -0.97875 73.82875 -1 73 C-7.05866727 69.66873942 -13.51944644 67.83485578 -20.125 65.86914062 C-28.14979549 63.33103888 -35.44169212 59.32585194 -40 52 C-44.21949457 43.37054756 -45.59007312 34.6613714 -43.33984375 25.234375 C-40.20645676 16.39035632 -35.1206646 10.82283776 -26.8125 6.5625 C-22.08983272 4.33757203 -18.12606026 2.86268136 -12.890625 2.90234375 C-12.13652344 2.90556641 -11.38242187 2.90878906 -10.60546875 2.91210938 C-9.82816406 2.92048828 -9.05085938 2.92886719 -8.25 2.9375 C-7.45722656 2.94201172 -6.66445313 2.94652344 -5.84765625 2.95117188 C-3.89840492 2.96291435 -1.94919262 2.98084854 0 3 C0 2.01 0 1.02 0 0 Z " fill="#EE1717" transform="translate(52,47)"/>
<path d="M0 0 C3.91209308 1.59415503 6.37218086 4.13893332 9.3125 7.125 C9.79452881 7.61347412 10.27655762 8.10194824 10.77319336 8.60522461 C14.20022068 12.10554508 17.48630831 15.70883692 20.66015625 19.44140625 C23.72906022 23.01135576 25.84634378 23.62168188 30.43359375 24.69140625 C31.06733414 24.841577 31.70107452 24.99174774 32.35401917 25.14646912 C34.38032191 25.62526038 36.40875411 26.09418 38.4375 26.5625 C40.46215899 27.03638705 42.48633264 27.51227994 44.51026917 27.98924255 C46.34904676 28.42152969 48.18902364 28.84870603 50.02905273 29.27563477 C53 30 53 30 56 31 C55.00740393 35.79268202 53.90679504 40.45635389 52.421875 45.12109375 C52.14859375 45.99443359 51.8753125 46.86777344 51.59375 47.76757812 C51.03093276 49.54852991 50.45274663 51.32469702 49.859375 53.09570312 C47.82889017 59.71918369 48.05396532 64.39287763 50 71 C50.24363281 71.8561792 50.48726563 72.7123584 50.73828125 73.59448242 C51.76567166 77.08767502 52.86572768 80.55618184 53.96484375 84.02734375 C54.22652344 84.87167969 54.48820312 85.71601563 54.7578125 86.5859375 C54.9964502 87.3392334 55.23508789 88.0925293 55.48095703 88.86865234 C56 91 56 91 56 95 C54.29457031 95.36351562 54.29457031 95.36351562 52.5546875 95.734375 C49.31911126 96.42869408 46.09425993 97.16047353 42.87109375 97.91015625 C39.99841812 98.57522554 37.20694815 99.11924965 34.28515625 99.55859375 C20.56446265 102.13622697 11.16195365 114.36408631 3 125 C-0.57460144 124.42070895 -2.23136626 123.13448621 -4.75 120.578125 C-5.4409375 119.88203125 -6.131875 119.1859375 -6.84375 118.46875 C-7.5553125 117.7365625 -8.266875 117.004375 -9 116.25 C-9.7115625 115.53328125 -10.423125 114.8165625 -11.15625 114.078125 C-16.68519359 108.46665987 -16.68519359 108.46665987 -18.75878906 105.39282227 C-21.67219884 102.28232888 -24.58292615 101.61837862 -28.609375 100.76171875 C-29.33618469 100.59122513 -30.06299438 100.42073151 -30.81182861 100.24507141 C-33.12082169 99.70777037 -35.43481023 99.19736148 -37.75 98.6875 C-39.32202005 98.32663155 -40.89364098 97.96401976 -42.46484375 97.59960938 C-46.30556812 96.71282088 -50.15099381 95.8500892 -54 95 C-52.66854472 87.41679781 -50.59875913 80.36281831 -47.94726562 73.14453125 C-44.44107554 62.82217114 -47.30020981 54.06464972 -50.5625 44 C-51.21189308 41.95905031 -51.8591432 39.91741711 -52.50390625 37.875 C-52.79080322 36.98554688 -53.0777002 36.09609375 -53.37329102 35.1796875 C-54 33 -54 33 -54 31 C-52.37475095 30.59368774 -50.74942496 30.1876815 -49.1237793 29.78295898 C-47.68907539 29.42292236 -46.25566044 29.05771576 -44.82348633 28.68774414 C-41.14915087 27.7460481 -37.49900744 26.88351077 -33.76171875 26.23046875 C-23.10349917 24.24306379 -17.85449068 20.28728555 -11 12 C-9.68895165 10.51954652 -8.37663774 9.04021184 -7.0625 7.5625 C-6.52625 6.93472656 -5.99 6.30695313 -5.4375 5.66015625 C-3.71819357 3.6745442 -1.89435001 1.81857601 0 0 Z M-17 28 C-17.77859375 28.42410156 -18.5571875 28.84820312 -19.359375 29.28515625 C-25.27930588 32.85102066 -29.25147184 37.23153957 -33 43 C-33.43570313 43.64195312 -33.87140625 44.28390625 -34.3203125 44.9453125 C-38.94936167 53.19991066 -38.27872613 64.52237988 -36.1875 73.48046875 C-32.53978665 83.27103269 -25.68051982 91.440252 -16.23828125 96.0390625 C-15.13033203 96.51472656 -15.13033203 96.51472656 -14 97 C-12.93845703 97.47566406 -12.93845703 97.47566406 -11.85546875 97.9609375 C-1.89565348 101.87308115 7.34617766 100.5987285 17.01953125 96.484375 C28.98147778 90.52691801 34.92638774 81.75979494 39.25 69.4375 C41.35810243 59.77536387 39.58148628 49.60064976 34.3125 41.1875 C27.82598803 32.34662443 19.48034742 26.96732728 9 24 C-0.23511749 23.16922583 -8.73828708 23.36361915 -17 28 Z " fill="#FABA1F" transform="translate(177,147)"/>
<path d="M0 0 C1.06347656 0.00322266 2.12695312 0.00644531 3.22265625 0.00976562 C4.86427734 0.02233398 4.86427734 0.02233398 6.5390625 0.03515625 C7.65667969 0.03966797 8.77429688 0.04417969 9.92578125 0.04882812 C12.67193054 0.06056381 15.41796836 0.07698262 18.1640625 0.09765625 C17.53960404 6.29917474 16.24735657 12.09342894 14.6015625 18.09765625 C13.7971875 21.06765625 12.9928125 24.03765625 12.1640625 27.09765625 C2.2640625 27.59265625 2.2640625 27.59265625 -7.8359375 28.09765625 C-7.68253906 30.13050781 -7.52914062 32.16335937 -7.37109375 34.2578125 C-6.66752732 44.33914341 -6.49008536 54.4340602 -6.2734375 64.53515625 C-6.23011712 66.44206412 -6.18649922 68.34896525 -6.14257812 70.25585938 C-6.03639725 74.8697188 -5.93628836 79.48365185 -5.8359375 84.09765625 C-13.7559375 84.42765625 -21.6759375 84.75765625 -29.8359375 85.09765625 C-31.3557167 66.35823588 -32.13170299 47.9060661 -31.8359375 29.09765625 C-33.61484375 29.34322266 -33.61484375 29.34322266 -35.4296875 29.59375 C-39.08538793 30.05071255 -42.64783345 30.20206652 -46.3359375 30.16015625 C-47.3775 30.15113281 -48.4190625 30.14210938 -49.4921875 30.1328125 C-50.65234375 30.11541016 -50.65234375 30.11541016 -51.8359375 30.09765625 C-51.17111937 22.25280227 -50.39102471 13.20783066 -46.8359375 6.09765625 C-44.69384766 5.68701172 -44.69384766 5.68701172 -41.875 5.46484375 C-40.84503906 5.38105469 -39.81507812 5.29726562 -38.75390625 5.2109375 C-37.66722656 5.13230469 -36.58054687 5.05367188 -35.4609375 4.97265625 C-34.41292969 4.88628906 -33.36492187 4.79992187 -32.28515625 4.7109375 C-25.45607033 4.17912982 -18.68423841 3.99030543 -11.8359375 4.09765625 C-11.8359375 3.10765625 -11.8359375 2.11765625 -11.8359375 1.09765625 C-7.83502346 0.3478092 -4.06844233 -0.02187335 0 0 Z " fill="#EE1717" transform="translate(127.8359375,65.90234375)"/>
<path d="M0 0 C0.37887509 7.69407872 -1.05757139 14.95030796 -2.4375 22.5 C-4.47619346 33.71143382 -4.47619346 33.71143382 -6 45 C-12.3631766 46.1569412 -18.53604993 46.07262865 -25 46 C-26.65 41.38 -28.3 36.76 -30 32 C-30.99 36.95 -31.98 41.9 -33 47 C-37.20933513 47.84186703 -40.56982867 48.10535527 -44.8125 48.0625 C-45.97394531 48.05347656 -47.13539063 48.04445312 -48.33203125 48.03515625 C-49.21246094 48.02355469 -50.09289062 48.01195312 -51 48 C-54.00616277 40.7379553 -56.64701953 33.39499635 -59.125 25.9375 C-59.47175781 24.91333984 -59.81851563 23.88917969 -60.17578125 22.83398438 C-62.14515293 16.92964208 -63.76823204 11.10169594 -65 5 C-59.57364835 3.19121612 -53.66885438 3.94799216 -48 4 C-46.35 8.62 -44.7 13.24 -43 18 C-41.68 13.05 -40.36 8.1 -39 3 C-34.03615596 2.00723119 -30.02187812 1.9250466 -25 2 C-23.35 6.62 -21.7 11.24 -20 16 C-19.01 11.38 -18.02 6.76 -17 2 C-11.21642935 -0.01167675 -6.09781001 -0.22084624 0 0 Z " fill="#FBFBFB" transform="translate(257,8)"/>
<path d="M0 0 C4.95 0 9.9 0 15 0 C15 4.95 15 9.9 15 15 C19.95 15 24.9 15 30 15 C30 10.05 30 5.1 30 0 C43.75 -0.125 43.75 -0.125 46 1 C45.96519531 2.10859375 45.93039063 3.2171875 45.89453125 4.359375 C45.86638651 5.82290148 45.83908708 7.28644439 45.8125 8.75 C45.78736328 9.47960938 45.76222656 10.20921875 45.73632812 10.9609375 C45.67432033 15.50817565 46.20037695 17.53044196 49 21 C49.6875 24.75 49.6875 24.75 50 28 C38.97742485 26.81314769 27.98164244 25.5225286 17 24 C16.505 25.485 16.505 25.485 16 27 C14.25976562 27.22042969 14.25976562 27.22042969 12.484375 27.4453125 C2.71507208 28.80111237 -5.52082531 30.64906451 -14 36 C-14.61101563 36.37898438 -15.22203125 36.75796875 -15.8515625 37.1484375 C-22.48950324 41.94817927 -26.24605248 50.24401189 -28 58 C-28.96280453 67.6559838 -29.34613435 77.60123909 -24 86 C-19.53194529 93.25125824 -17.04291091 97.47268324 -19 106 C-19.66 105.67 -20.32 105.34 -21 105 C-23.97 105 -26.94 105 -30 105 C-30 80.25 -30 55.5 -30 30 C-25.05 30 -20.1 30 -15 30 C-15 25.05 -15 20.1 -15 15 C-10.05 15 -5.1 15 0 15 C0 10.05 0 5.1 0 0 Z " fill="#F0F0EF" transform="translate(30,15)"/>
<path d="M0 0 C8.40836109 6.0766307 14.09208139 13.38492419 16.57421875 23.4921875 C16.80109375 24.3378125 17.02796875 25.1834375 17.26171875 26.0546875 C18.56432798 36.21503946 16.49520267 46.11837561 10.26171875 54.4296875 C9.06405853 55.8117975 7.83615089 57.16850123 6.57421875 58.4921875 C5.78917969 59.33716797 5.78917969 59.33716797 4.98828125 60.19921875 C-2.64903372 67.55711976 -13.72154221 70.89094039 -24.09765625 70.765625 C-34.87092917 69.88049694 -43.10777262 65.16895068 -50.39453125 57.390625 C-58.71636937 47.41147166 -60.82797044 37.38435149 -59.74804688 24.63525391 C-58.94017355 19.26289626 -56.45316673 14.91147435 -53.42578125 10.4921875 C-52.95785156 9.80769531 -52.48992187 9.12320313 -52.0078125 8.41796875 C-39.72899269 -7.4378742 -16.680868 -10.36846224 0 0 Z M-47.42578125 13.4921875 C-53.178044 20.88041489 -54.33782414 28.22843762 -53.42578125 37.4921875 C-51.62488399 43.73023526 -47.39971935 48.45631667 -42.42578125 52.4921875 C-41.389375 52.86730469 -41.389375 52.86730469 -40.33203125 53.25 C-37.32233464 55.21123673 -37.28877032 58.1392549 -36.42578125 61.4921875 C-32.18995798 61.54157378 -27.9542866 61.57790013 -23.71826172 61.60205078 C-22.27682578 61.61211713 -20.8354103 61.6257713 -19.39404297 61.64306641 C-17.32384191 61.66728762 -15.25391049 61.67866391 -13.18359375 61.6875 C-11.93723145 61.69797363 -10.69086914 61.70844727 -9.40673828 61.71923828 C-6.30806494 61.80871242 -6.30806494 61.80871242 -4.42578125 59.4921875 C-4.25897016 56.40870924 -4.25897016 56.40870924 -4.42578125 53.4921875 C-3.70390625 53.2446875 -2.98203125 52.9971875 -2.23828125 52.7421875 C3.46617408 50.20687402 6.77478729 46.65612525 9.62109375 41.1796875 C12.37875018 33.40400051 11.2565115 25.06825319 7.82421875 17.703125 C3.0657167 9.2865245 -3.9739515 4.6729194 -12.86328125 1.1171875 C-27.48126646 -1.44737131 -37.39222917 2.67587604 -47.42578125 13.4921875 Z " fill="#090603" transform="translate(199.42578125,176.5078125)"/>
<path d="M0 0 C0 7.92 0 15.84 0 24 C-3.63 24.66 -7.26 25.32 -11 26 C-21.06064179 29.67077471 -29.2074515 35.20501037 -34 45 C-34.79277344 46.58748047 -34.79277344 46.58748047 -35.6015625 48.20703125 C-37.34212885 52.35370708 -37.53816981 56.22974357 -37.5 60.6875 C-37.49355469 61.47697021 -37.48710937 62.26644043 -37.48046875 63.07983398 C-37.15762883 73.50522716 -33.40442984 81.58965816 -26.16796875 89.09765625 C-22.73388562 92.11098685 -19.17224726 94.17195352 -15 96 C-14.29101562 96.31839844 -13.58203125 96.63679688 -12.8515625 96.96484375 C-2.89027611 100.86664726 6.35411248 99.60737199 16.0234375 95.4765625 C26.08572397 90.48503457 33.1691671 82.59112627 37 72 C38.31275643 75.9382693 37.37070685 77.01942325 35.5625 80.6875 C29.813142 91.59417685 21.81667925 97.63840606 10.140625 101.63671875 C-0.64377067 103.46691728 -11.57333121 102.83941 -21 97 C-26.33644968 93.00668921 -30.87853266 89.47845942 -33 83 C-43.64563947 88.2266422 -43.64563947 88.2266422 -54 94 C-53.4168594 86.51636235 -51.59631624 80.20240356 -48.99609375 73.19335938 C-45.43906549 62.83713118 -48.28518227 54.11101193 -51.5625 44 C-52.21189308 41.95905031 -52.8591432 39.91741711 -53.50390625 37.875 C-53.79080322 36.98554688 -54.0777002 36.09609375 -54.37329102 35.1796875 C-55 33 -55 33 -55 31 C-53.37475095 30.59368774 -51.74942496 30.1876815 -50.1237793 29.78295898 C-48.68907539 29.42292236 -47.25566044 29.05771576 -45.82348633 28.68774414 C-42.14915087 27.7460481 -38.49900744 26.88351077 -34.76171875 26.23046875 C-24.10349917 24.24306379 -18.85449068 20.28728555 -12 12 C-10.68895165 10.51954652 -9.37663774 9.04021184 -8.0625 7.5625 C-7.52496094 6.93472656 -6.98742187 6.30695313 -6.43359375 5.66015625 C-1.54588235 0 -1.54588235 0 0 0 Z " fill="#FAE159" transform="translate(178,147)"/>
<path d="M0 0 C1.67828807 4.96018001 3.35041195 9.92238137 5.01708984 14.88647461 C5.58379809 16.5716011 6.15212726 18.25618344 6.72216797 19.94018555 C7.54571249 22.37404087 8.36322409 24.80985517 9.1796875 27.24609375 C9.43185028 27.98709824 9.68401306 28.72810272 9.94381714 29.49156189 C11.65014259 34.6089279 12.89936675 39.7183305 14 45 C9.05 45 4.1 45 -1 45 C-1.495 42.525 -1.495 42.525 -2 40 C-6.29 40 -10.58 40 -15 40 C-15 41.98 -15 43.96 -15 46 C-16 47 -16 47 -19.16015625 47.09765625 C-20.44792969 47.08605469 -21.73570312 47.07445312 -23.0625 47.0625 C-24.35285156 47.05347656 -25.64320313 47.04445312 -26.97265625 47.03515625 C-27.97167969 47.02355469 -28.97070312 47.01195312 -30 47 C-29.41493301 39.90221367 -28.36762702 32.98679024 -27 26 C-26.82210937 25.06027344 -26.64421875 24.12054687 -26.4609375 23.15234375 C-25.13334309 16.26668618 -25.13334309 16.26668618 -24 14 C-25.32 14 -26.64 14 -28 14 C-27.85915204 12.20793453 -27.71216299 10.41635083 -27.5625 8.625 C-27.48128906 7.62726562 -27.40007812 6.62953125 -27.31640625 5.6015625 C-27 3 -27 3 -26 1 C-23.16681141 0.83049299 -20.33349012 0.66432466 -17.5 0.5 C-16.70851562 0.45230469 -15.91703125 0.40460937 -15.1015625 0.35546875 C-13.92207031 0.28779297 -13.92207031 0.28779297 -12.71875 0.21875 C-12.00654297 0.17685547 -11.29433594 0.13496094 -10.56054688 0.09179688 C-7.03871269 -0.03446263 -3.52407221 -0.01300396 0 0 Z " fill="#FAFAFA" transform="translate(186,7)"/>
<path d="M0 0 C2.37484353 3.32959481 2.5918468 6.36333423 2.375 10.375 C1.87291805 13.22013103 0.75793815 15.22932989 -1 17.5 C-0.030625 18.263125 0.93875 19.02625 1.9375 19.8125 C4.42086332 21.76748815 4.9521672 22.35650159 6 25.5 C6.78580372 32.23546047 6.78580372 32.23546047 4.73046875 35.54296875 C0.59176607 40.42683931 -2.05564201 41.61885178 -8.4375 42.5625 C-9.59121094 42.73910156 -10.74492188 42.91570313 -11.93359375 43.09765625 C-16.93962673 43.71316277 -21.96551557 43.57752428 -27 43.5 C-27.50469616 39.27137996 -28.00293584 35.04202341 -28.5 30.8125 C-28.64308594 29.61431641 -28.78617187 28.41613281 -28.93359375 27.18164062 C-29.06894531 26.02470703 -29.20429687 24.86777344 -29.34375 23.67578125 C-29.53227539 22.08117065 -29.53227539 22.08117065 -29.72460938 20.4543457 C-29.97394201 17.77954584 -30.05207267 15.18391231 -30 12.5 C-30.99 12.5 -31.98 12.5 -33 12.5 C-32.67 8.21 -32.34 3.92 -32 -0.5 C-28.66831984 -1.03415524 -25.33540741 -1.55261462 -22 -2.0625 C-21.06542969 -2.21396484 -20.13085938 -2.36542969 -19.16796875 -2.52148438 C-5.49301133 -4.57750944 -5.49301133 -4.57750944 0 0 Z " fill="#FAFAFA" transform="translate(113,12.5)"/>
<path d="M0 0 C3.50084645 -0.10864696 6.99827172 -0.18762825 10.5 -0.25 C11.48226562 -0.28351562 12.46453125 -0.31703125 13.4765625 -0.3515625 C19.88239035 -0.43697354 24.67568249 0.28148095 30 4 C33.76141638 7.76141638 34.27840512 10.8580535 34.4375 16 C34.26965119 20.66503947 33.84090444 24.14448683 31 28 C28.890625 29.1484375 28.890625 29.1484375 27 30 C27.433125 30.91523437 27.86625 31.83046875 28.3125 32.7734375 C28.869375 33.96195313 29.42625 35.15046875 30 36.375 C30.556875 37.55835938 31.11375 38.74171875 31.6875 39.9609375 C33 43 33 43 33 45 C28.05 45 23.1 45 18 45 C14 36.375 14 36.375 14 33 C13.34 33 12.68 33 12 33 C12 36.96 12 40.92 12 45 C7.71 44.67 3.42 44.34 -1 44 C-1.09993275 33.60699383 -0.76262407 23.36351633 0 13 C-0.99 13 -1.98 13 -3 13 C-2.01 8.71 -1.02 4.42 0 0 Z " fill="#FBFBFB" transform="translate(121,8)"/>
<path d="M0 0 C4.80608229 0.5861076 8.74292516 1.66009188 13 4 C14.38507706 6.56234409 15.17861073 8.45676455 15.94140625 11.1953125 C16.15820541 11.90219208 16.37500458 12.60907166 16.59837341 13.33737183 C17.04923893 14.8312513 17.4863341 16.32934786 17.91040039 17.83105469 C18.55781234 20.10850983 19.25624642 22.365316 19.96289062 24.625 C22.24998257 32.20617077 23.88612261 38.36763143 21 46 C20.49862669 47.79788943 20.00835671 49.59890034 19.52734375 51.40234375 C19.0001477 53.24818402 18.47017309 55.09323284 17.9375 56.9375 C17.66873047 57.88173828 17.39996094 58.82597656 17.12304688 59.79882812 C15.13147321 66.73705357 15.13147321 66.73705357 14 69 C6.83859282 66.08238967 3.12640764 59.72177644 0 53 C-1.1558103 49.57511427 -1.1015984 46.34705258 -1.0625 42.75 C-1.04896484 41.13351563 -1.04896484 41.13351563 -1.03515625 39.484375 C-1.02355469 38.66453125 -1.01195313 37.8446875 -1 37 C1.64 37 4.28 37 7 37 C6.60167969 36.50371094 6.20335938 36.00742188 5.79296875 35.49609375 C5.26316406 34.81675781 4.73335938 34.13742188 4.1875 33.4375 C3.66542969 32.77621094 3.14335938 32.11492187 2.60546875 31.43359375 C-1.1476497 25.74456018 -2.47308166 20.68835312 -2.3125 13.9375 C-2.31572266 13.25623047 -2.31894531 12.57496094 -2.32226562 11.87304688 C-2.27666517 7.55758578 -1.57055494 4.01085942 0 0 Z " fill="#FAFAFA" transform="translate(104,171)"/>
<path d="M0 0 C3.5086007 7.12947661 3.184255 17.24377585 1.27734375 24.90234375 C-0.69998971 29.58550194 -3.5681285 33.28213921 -7 37 C-4.36 37 -1.72 37 1 37 C1.68786126 49.19043018 -0.05696904 57.28480366 -8.21875 66.50390625 C-10.18179276 68.15268997 -11.53396579 68.4692416 -14 69 C-14.96244398 66.00130342 -15.91918473 63.00081538 -16.875 60 C-17.14441406 59.16082031 -17.41382813 58.32164062 -17.69140625 57.45703125 C-21.98840258 43.93721352 -22.67049221 34.55869417 -18.70410156 20.79882812 C-18.31744876 19.43087268 -17.94927723 18.05756082 -17.59960938 16.6796875 C-14.70099821 5.25894239 -14.70099821 5.25894239 -10.55371094 2.18945312 C-6.91956281 0.68612322 -3.93129754 0 0 0 Z " fill="#FBFBFB" transform="translate(252,171)"/>
<path d="M0 0 C4.95 0 9.9 0 15 0 C15 4.95 15 9.9 15 15 C19.95 15 24.9 15 30 15 C30 19.95 30 24.9 30 30 C27.16714131 30.22396532 24.33485076 30.42949305 21.5 30.625 C20.31277344 30.72167969 20.31277344 30.72167969 19.1015625 30.8203125 C13.61975629 31.1797752 9.26518728 30.58197141 4 29 C4 29.99 4 30.98 4 32 C-2.52352011 32.29652364 -8.57903516 31.15433076 -15 30 C-15 25.05 -15 20.1 -15 15 C-10.05 15 -5.1 15 0 15 C0 10.05 0 5.1 0 0 Z " fill="#FEFEFE" transform="translate(315,15)"/>
<path d="M0 0 C4.95 0.33 9.9 0.66 15 1 C15.22214098 11.55169649 14.41529451 21.56220298 13 32 C17.62 32 22.24 32 27 32 C24.125 43.75 24.125 43.75 23 46 C15.08 45.67 7.16 45.34 -1 45 C-1 37.22790967 -0.85618765 29.90940845 0 22.25 C0.09539062 21.35023437 0.19078125 20.45046875 0.2890625 19.5234375 C0.52045408 17.34835665 0.75939031 15.17408044 1 13 C0.01 13 -0.98 13 -2 13 C-1.34 8.71 -0.68 4.42 0 0 Z " fill="#FAF9F9" transform="translate(260,10)"/>
<path d="M0 0 C0 7.92 0 15.84 0 24 C-3.63 24.66 -7.26 25.32 -11 26 C-20.15940954 29.34194672 -28.14153752 34.33926253 -33 43 C-38.17935061 41.53171057 -42.34373412 39.18508737 -46.875 36.375 C-47.56335938 35.95476562 -48.25171875 35.53453125 -48.9609375 35.1015625 C-50.64391658 34.07307528 -52.32242532 33.037279 -54 32 C-53.67 31.34 -53.34 30.68 -53 30 C-50.92955103 29.46558765 -48.83102026 29.03911936 -46.7265625 28.66015625 C-26.6364084 25.29788048 -26.6364084 25.29788048 -12 12 C-10.70486095 10.50560878 -9.39381068 9.02475927 -8.0625 7.5625 C-7.52496094 6.93472656 -6.98742187 6.30695313 -6.43359375 5.66015625 C-1.54588235 0 -1.54588235 0 0 0 Z " fill="#FAF9F9" transform="translate(178,147)"/>
<path d="M0 0 C7.11105428 6.09518938 13.43404815 12.21265563 19.51953125 19.30078125 C22.69079785 22.9406255 24.74501888 23.58581012 29.46875 24.65625 C30.10486206 24.80404907 30.74097412 24.95184814 31.3963623 25.10412598 C33.4293922 25.57631759 35.46434814 26.0392518 37.5 26.5 C40.17905628 27.10637597 42.85570335 27.72209332 45.53125 28.34375 C46.72298828 28.61380859 47.91472656 28.88386719 49.14257812 29.16210938 C52 30 52 30 54 32 C47.73 35.63 41.46 39.26 35 43 C32.525 40.525 32.525 40.525 30 38 C20.94535768 29.30682045 12.53916134 25.56739517 0 24 C0 16.08 0 8.16 0 0 Z " fill="#FBE25A" transform="translate(178,147)"/>
<path d="M0 0 C1.32421875 1.5390625 1.32421875 1.5390625 2.6875 3.625 C8.0352897 11.06197535 15.1695811 15.59742164 24 18 C27.99856837 18.56244638 31.96569938 18.86136424 36 19 C35.01 19.33 34.02 19.66 33 20 C33.33 27.26 33.66 34.52 34 42 C30.61780957 40.30890479 29.01731253 39.26577362 26.46875 36.69921875 C25.82292969 36.05146484 25.17710937 35.40371094 24.51171875 34.73632812 C23.84785156 34.06021484 23.18398437 33.38410156 22.5 32.6875 C21.83613281 32.02298828 21.17226562 31.35847656 20.48828125 30.67382812 C15.28629629 25.42511875 15.28629629 25.42511875 13.25488281 22.40869141 C10.33352702 19.288066 7.42898104 18.62091197 3.390625 17.76171875 C2.66381531 17.59122513 1.93700562 17.42073151 1.18817139 17.24507141 C-1.12082169 16.70777037 -3.43481023 16.19736148 -5.75 15.6875 C-7.32202005 15.32663155 -8.89364098 14.96401976 -10.46484375 14.59960938 C-14.30556812 13.71282088 -18.15099381 12.8500892 -22 12 C-21.67 11.01 -21.34 10.02 -21 9 C-20.34 9 -19.68 9 -19 9 C-17.77994296 8.38843534 -16.58636941 7.72340109 -15.41015625 7.03125 C-14.70826172 6.62519531 -14.00636719 6.21914062 -13.28320312 5.80078125 C-11.80564176 4.93529676 -10.32907335 4.06811481 -8.85351562 3.19921875 C-8.15033203 2.79316406 -7.44714844 2.38710937 -6.72265625 1.96875 C-6.08078369 1.59169922 -5.43891113 1.21464844 -4.77758789 0.82617188 C-3 0 -3 0 0 0 Z " fill="#FABA1F" transform="translate(145,230)"/>
<path d="M0 0 C4.91441412 1.43652105 9.00238358 3.54159615 13.375 6.125 C14.01566406 6.49753906 14.65632813 6.87007812 15.31640625 7.25390625 C16.88048477 8.16434002 18.44065534 9.08148191 20 10 C20.33 9.34 20.66 8.68 21 8 C21 9.32 21 10.64 21 12 C19.86304688 12.24234375 18.72609375 12.4846875 17.5546875 12.734375 C14.31911126 13.42869408 11.09425993 14.16047353 7.87109375 14.91015625 C4.99841812 15.57522554 2.20694815 16.11924965 -0.71484375 16.55859375 C-12.2133441 18.71875543 -18.61074775 26.70048307 -26.21923828 35.05810547 C-28.410718 37.44788195 -30.68515508 39.73027876 -33 42 C-34.17700048 37.37540756 -34.11408412 32.92133538 -34.0625 28.1875 C-34.05573242 27.00510742 -34.05573242 27.00510742 -34.04882812 25.79882812 C-34.03711312 23.86585239 -34.01917998 21.93291607 -34 20 C-33.03320312 19.78085938 -32.06640625 19.56171875 -31.0703125 19.3359375 C-17.41716023 16.08351261 -9.03216914 11.03931784 0 0 Z " fill="#C65E3E" transform="translate(212,230)"/>
<path d="M0 0 C0.66 0 1.32 0 2 0 C3.07701172 1.35931641 3.07701172 1.35931641 4.17578125 2.74609375 C7.02622326 6.29949877 10.14463377 8.07575526 14.1875 10.0625 C15.17399536 10.56837646 15.17399536 10.56837646 16.18041992 11.08447266 C18.11312045 12.07147395 20.05409761 13.03933225 22 14 C23.03382813 14.51175781 24.06765625 15.02351563 25.1328125 15.55078125 C26.79874793 16.37403506 28.46866455 17.18934349 30.14453125 17.9921875 C32 19 32 19 34 21 C33.44444444 25.55555556 33.44444444 25.55555556 32 27 C24.62298339 27.8928532 19.47627504 26.32307228 13 23 C10.98285062 22.07525489 8.96194208 21.15866902 6.9375 20.25 C5.29149416 19.50037868 3.64559818 18.75051581 2 18 C-0.47197926 25.29233882 -2.75723186 32.63415742 -5 40 C-5.66 40 -6.32 40 -7 40 C-8.0098473 38.08850332 -9.00754495 36.17058431 -10 34.25 C-10.556875 33.18265625 -11.11375 32.1153125 -11.6875 31.015625 C-13 28 -13 28 -13 24 C-11.390625 22.4296875 -11.390625 22.4296875 -9.25 20.875 C-3.48301427 16.11851265 -1.35361015 10.14411222 -0.25 2.875 C-0.1675 1.92625 -0.085 0.9775 0 0 Z " fill="#070101" transform="translate(281,101)"/>
<path d="M0 0 C0 2.97 0 5.94 0 9 C-4.95 9 -9.9 9 -15 9 C-15 13.95 -15 18.9 -15 24 C-19.95 24 -24.9 24 -30 24 C-30.31739312 10.82818538 -30.31739312 10.82818538 -26.72290039 6.44140625 C-24.60431417 4.66896286 -22.93848059 4.23355229 -20.25390625 3.61328125 C-19.33416016 3.39736328 -18.41441406 3.18144531 -17.46679688 2.95898438 C-16.02916992 2.63897461 -16.02916992 2.63897461 -14.5625 2.3125 C-13.13067383 1.97508789 -13.13067383 1.97508789 -11.66992188 1.63085938 C-7.62871873 0.70044941 -4.17289205 0 0 0 Z " fill="#ECECEB" transform="translate(225,261)"/>
<path d="M0 0 C0.33 0 0.66 0 1 0 C1.33 1.98 1.66 3.96 2 6 C2.99 6 3.98 6 5 6 C5 10.95 5 15.9 5 21 C9.95 21 14.9 21 20 21 C20 25.95 20 30.9 20 36 C22.31 36 24.62 36 27 36 C28.67557379 36.28520405 30.34817245 36.59955696 32 37 C32 37.33 32 37.66 32 38 C31.0821875 38.12117188 30.164375 38.24234375 29.21875 38.3671875 C22.69263976 39.25835802 16.34521474 40.22333987 10 42 C10.47627975 40.04096255 10.95611423 38.08278903 11.4375 36.125 C11.70433594 35.03445312 11.97117187 33.94390625 12.24609375 32.8203125 C13 30 13 30 14 28 C9.05 28 4.1 28 -1 28 C-1.08798485 18.58562131 -0.88610155 9.38318247 0 0 Z " fill="#EFEFEE" transform="translate(280,9)"/>
<path d="M0 0 C24.75 0 49.5 0 75 0 C75 2.31 75 4.62 75 7 C68.73 7.33 62.46 7.66 56 8 C55.505 5.03 55.505 5.03 55 2 C54.1529248 2.06058594 53.30584961 2.12117187 52.43310547 2.18359375 C49.26867143 2.40891289 46.10411035 2.63233144 42.93945312 2.85449219 C41.57383992 2.95074402 40.20827876 3.04773737 38.84277344 3.14550781 C36.87188584 3.28649101 34.90078784 3.42452298 32.9296875 3.5625 C31.74616699 3.64628906 30.56264648 3.73007812 29.34326172 3.81640625 C26.2201862 3.98790857 23.12691932 4.03330939 20 4 C20 5.65 20 7.3 20 9 C18.33984375 7.99088542 16.6796875 6.98177083 15.01953125 5.97265625 C11.17996056 4.12342395 7.1281283 3.86439815 2.91796875 3.68359375 C1.98662109 3.64169922 1.05527344 3.59980469 0.09570312 3.55664062 C-0.86400391 3.51732422 -1.82371094 3.47800781 -2.8125 3.4375 C-3.79154297 3.39431641 -4.77058594 3.35113281 -5.77929688 3.30664062 C-8.18607027 3.2009774 -10.59293983 3.09887673 -13 3 C-13 2.67 -13 2.34 -13 2 C-6.565 1.505 -6.565 1.505 0 1 C0 0.67 0 0.34 0 0 Z " fill="#F0F0F0" transform="translate(135,0)"/>
<path d="M0 0 C2.69990662 1.79993774 4.5418865 3.083773 6 6 C6.68571429 12.97142857 6.68571429 12.97142857 4 17 C-0.13665594 19.75777063 -2.08692938 19.62388198 -7 19 C-10.23613354 17.25746655 -10.82395315 16.52814056 -12 13 C-12.58171745 7.84764543 -12.58171745 7.84764543 -12 5 C-8.36438899 0.84501599 -5.54577572 -1.06195705 0 0 Z " fill="#040301" transform="translate(167,205)"/>
<path d="M0 0 C3.375 2 3.375 2 6 5 C7.00688388 9.06027971 6.37408663 12.16275849 4.6875 15.9375 C2.2873469 18.87102045 0.33072958 18.96325227 -3.375 19.375 C-7 19 -7 19 -9.9375 17 C-12.2472973 13.64029484 -12.68169593 11.91074695 -12.43359375 7.93359375 C-11.75194607 4.89381354 -10.19767713 3.13303956 -8 1 C-5.09704195 -0.45147903 -3.22738221 -0.37239025 0 0 Z " fill="#040201" transform="translate(196,205)"/>
<path d="M0 0 C7.7884635 -0.04629055 15.57689492 -0.08185242 23.36546135 -0.10362434 C26.98180873 -0.11407249 30.59806216 -0.12825032 34.21435547 -0.15087891 C37.70268811 -0.1725708 41.19093024 -0.18456085 44.6793251 -0.18975449 C46.66139971 -0.19526169 48.64343779 -0.21088034 50.62545776 -0.22659302 C51.82655182 -0.22674408 53.02764587 -0.22689514 54.26513672 -0.22705078 C55.32658905 -0.231492 56.38804138 -0.23593323 57.48165894 -0.24050903 C60 0 60 0 62 2 C55.4 2 48.8 2 42 2 C41.67 3.98 41.34 5.96 41 8 C40.360625 7.690625 39.72125 7.38125 39.0625 7.0625 C31.52823944 4.44857287 24.11603682 5.03687675 16.3125 5.9375 C5.27174621 7.14862303 5.27174621 7.14862303 0 7 C0 4.69 0 2.38 0 0 Z " fill="#F3F3F3" transform="translate(75,0)"/>
<path d="M0 0 C2.0625 1.0625 2.0625 1.0625 3 3 C3.13701401 6.63087132 2.90982055 8.98127325 0.43359375 11.75390625 C-4.09831754 15.6803012 -6.88004361 17.33114913 -13.0859375 17.20703125 C-15 17 -15 17 -17.0625 15.9375 C-18.68883415 12.57640943 -18.07260641 10.51576544 -17 7 C-12.03426079 1.43985809 -7.5380023 -0.81533494 0 0 Z " fill="#FDFDFD" transform="translate(172,183)"/>
<path d="M0 0 C4.29 0 8.58 0 13 0 C13 4.95 13 9.9 13 15 C8.05 15 3.1 15 -2 15 C-3 5.375 -3 5.375 -3 2 C-2.01 2 -1.02 2 0 2 C0 1.34 0 0.68 0 0 Z " fill="#EEEEED" transform="translate(347,150)"/>
<path d="M0 0 C4.95 0 9.9 0 15 0 C15 4.95 15 9.9 15 15 C10.05 15 5.1 15 0 15 C0 10.05 0 5.1 0 0 Z " fill="#EFEFEE" transform="translate(345,270)"/>
<path d="M0 0 C4.95 0 9.9 0 15 0 C15 4.95 15 9.9 15 15 C10.05 15 5.1 15 0 15 C0 10.05 0 5.1 0 0 Z " fill="#FFFFFF" transform="translate(330,270)"/>
<path d="M0 0 C4.95 0 9.9 0 15 0 C15 4.95 15 9.9 15 15 C10.05 15 5.1 15 0 15 C0 10.05 0 5.1 0 0 Z " fill="#EFEFEE" transform="translate(315,270)"/>
<path d="M0 0 C4.95 0 9.9 0 15 0 C15 4.95 15 9.9 15 15 C10.05 15 5.1 15 0 15 C0 10.05 0 5.1 0 0 Z " fill="#FFFFFF" transform="translate(300,270)"/>
<path d="M0 0 C4.95 0 9.9 0 15 0 C15 4.95 15 9.9 15 15 C10.05 15 5.1 15 0 15 C0 10.05 0 5.1 0 0 Z " fill="#FFFFFF" transform="translate(270,270)"/>
<path d="M0 0 C4.95 0 9.9 0 15 0 C15 4.95 15 9.9 15 15 C10.05 15 5.1 15 0 15 C0 10.05 0 5.1 0 0 Z " fill="#EFEFEE" transform="translate(255,270)"/>
<path d="M0 0 C4.95 0 9.9 0 15 0 C15 4.95 15 9.9 15 15 C10.05 15 5.1 15 0 15 C0 10.05 0 5.1 0 0 Z " fill="#FFFFFF" transform="translate(240,270)"/>
<path d="M0 0 C4.95 0 9.9 0 15 0 C15 4.95 15 9.9 15 15 C10.05 15 5.1 15 0 15 C0 10.05 0 5.1 0 0 Z " fill="#EFEFEE" transform="translate(225,270)"/>
<path d="M0 0 C4.95 0 9.9 0 15 0 C15 4.95 15 9.9 15 15 C10.05 15 5.1 15 0 15 C0 10.05 0 5.1 0 0 Z " fill="#FFFFFF" transform="translate(210,270)"/>
<path d="M0 0 C4.95 0 9.9 0 15 0 C15 4.95 15 9.9 15 15 C10.05 15 5.1 15 0 15 C0 10.05 0 5.1 0 0 Z " fill="#EFEFEE" transform="translate(135,270)"/>
<path d="M0 0 C4.95 0 9.9 0 15 0 C15 4.95 15 9.9 15 15 C10.05 15 5.1 15 0 15 C0 10.05 0 5.1 0 0 Z " fill="#EFEFEE" transform="translate(105,270)"/>
<path d="M0 0 C4.95 0 9.9 0 15 0 C15 4.95 15 9.9 15 15 C10.05 15 5.1 15 0 15 C0 10.05 0 5.1 0 0 Z " fill="#EFEFEE" transform="translate(75,270)"/>
<path d="M0 0 C4.95 0 9.9 0 15 0 C15 4.95 15 9.9 15 15 C10.05 15 5.1 15 0 15 C0 10.05 0 5.1 0 0 Z " fill="#EFEFEE" transform="translate(45,270)"/>
<path d="M0 0 C4.95 0 9.9 0 15 0 C15 4.95 15 9.9 15 15 C10.05 15 5.1 15 0 15 C0 10.05 0 5.1 0 0 Z " fill="#FFFFFF" transform="translate(30,270)"/>
<path d="M0 0 C4.95 0 9.9 0 15 0 C15 4.95 15 9.9 15 15 C10.05 15 5.1 15 0 15 C0 10.05 0 5.1 0 0 Z " fill="#EFEFEE" transform="translate(15,270)"/>
<path d="M0 0 C4.95 0 9.9 0 15 0 C15 4.95 15 9.9 15 15 C10.05 15 5.1 15 0 15 C0 10.05 0 5.1 0 0 Z " fill="#FFFFFF" transform="translate(345,255)"/>
<path d="M0 0 C4.95 0 9.9 0 15 0 C15 4.95 15 9.9 15 15 C10.05 15 5.1 15 0 15 C0 10.05 0 5.1 0 0 Z " fill="#EFEFEE" transform="translate(330,255)"/>
<path d="M0 0 C4.95 0 9.9 0 15 0 C15 4.95 15 9.9 15 15 C10.05 15 5.1 15 0 15 C0 10.05 0 5.1 0 0 Z " fill="#FFFFFF" transform="translate(315,255)"/>
<path d="M0 0 C4.95 0 9.9 0 15 0 C15 4.95 15 9.9 15 15 C10.05 15 5.1 15 0 15 C0 10.05 0 5.1 0 0 Z " fill="#FFFFFF" transform="translate(285,255)"/>
<path d="M0 0 C4.95 0 9.9 0 15 0 C15 4.95 15 9.9 15 15 C10.05 15 5.1 15 0 15 C0 10.05 0 5.1 0 0 Z " fill="#FFFFFF" transform="translate(255,255)"/>
<path d="M0 0 C4.95 0 9.9 0 15 0 C15 4.95 15 9.9 15 15 C10.05 15 5.1 15 0 15 C0 10.05 0 5.1 0 0 Z " fill="#EFEFEE" transform="translate(240,255)"/>
<path d="M0 0 C4.95 0 9.9 0 15 0 C15 4.95 15 9.9 15 15 C10.05 15 5.1 15 0 15 C0 10.05 0 5.1 0 0 Z " fill="#FFFFFF" transform="translate(105,255)"/>
<path d="M0 0 C4.95 0 9.9 0 15 0 C15 4.95 15 9.9 15 15 C10.05 15 5.1 15 0 15 C0 10.05 0 5.1 0 0 Z " fill="#EFEFEE" transform="translate(90,255)"/>
<path d="M0 0 C4.95 0 9.9 0 15 0 C15 4.95 15 9.9 15 15 C10.05 15 5.1 15 0 15 C0 10.05 0 5.1 0 0 Z " fill="#FFFFFF" transform="translate(75,255)"/>
<path d="M0 0 C4.95 0 9.9 0 15 0 C15 4.95 15 9.9 15 15 C10.05 15 5.1 15 0 15 C0 10.05 0 5.1 0 0 Z " fill="#EFEFEE" transform="translate(60,255)"/>
<path d="M0 0 C4.95 0 9.9 0 15 0 C15 4.95 15 9.9 15 15 C10.05 15 5.1 15 0 15 C0 10.05 0 5.1 0 0 Z " fill="#FFFFFF" transform="translate(45,255)"/>
<path d="M0 0 C4.95 0 9.9 0 15 0 C15 4.95 15 9.9 15 15 C10.05 15 5.1 15 0 15 C0 10.05 0 5.1 0 0 Z " fill="#EFEFEE" transform="translate(30,255)"/>
<path d="M0 0 C4.95 0 9.9 0 15 0 C15 4.95 15 9.9 15 15 C10.05 15 5.1 15 0 15 C0 10.05 0 5.1 0 0 Z " fill="#FFFFFF" transform="translate(15,255)"/>
<path d="M0 0 C4.95 0 9.9 0 15 0 C15 4.95 15 9.9 15 15 C10.05 15 5.1 15 0 15 C0 10.05 0 5.1 0 0 Z " fill="#EFEFEE" transform="translate(0,255)"/>
<path d="M0 0 C4.95 0 9.9 0 15 0 C15 4.95 15 9.9 15 15 C10.05 15 5.1 15 0 15 C0 10.05 0 5.1 0 0 Z " fill="#EFEFEE" transform="translate(345,240)"/>
<path d="M0 0 C4.95 0 9.9 0 15 0 C15 4.95 15 9.9 15 15 C10.05 15 5.1 15 0 15 C0 10.05 0 5.1 0 0 Z " fill="#FFFFFF" transform="translate(330,240)"/>
<path d="M0 0 C4.95 0 9.9 0 15 0 C15 4.95 15 9.9 15 15 C10.05 15 5.1 15 0 15 C0 10.05 0 5.1 0 0 Z " fill="#EFEFEE" transform="translate(315,240)"/>
<path d="M0 0 C4.95 0 9.9 0 15 0 C15 4.95 15 9.9 15 15 C10.05 15 5.1 15 0 15 C0 10.05 0 5.1 0 0 Z " fill="#FFFFFF" transform="translate(300,240)"/>
<path d="M0 0 C4.95 0 9.9 0 15 0 C15 4.95 15 9.9 15 15 C10.05 15 5.1 15 0 15 C0 10.05 0 5.1 0 0 Z " fill="#FFFFFF" transform="translate(270,240)"/>
<path d="M0 0 C4.95 0 9.9 0 15 0 C15 4.95 15 9.9 15 15 C10.05 15 5.1 15 0 15 C0 10.05 0 5.1 0 0 Z " fill="#FFFFFF" transform="translate(90,240)"/>
<path d="M0 0 C4.95 0 9.9 0 15 0 C15 4.95 15 9.9 15 15 C10.05 15 5.1 15 0 15 C0 10.05 0 5.1 0 0 Z " fill="#EFEFEE" transform="translate(75,240)"/>
<path d="M0 0 C4.95 0 9.9 0 15 0 C15 4.95 15 9.9 15 15 C10.05 15 5.1 15 0 15 C0 10.05 0 5.1 0 0 Z " fill="#FFFFFF" transform="translate(60,240)"/>
<path d="M0 0 C4.95 0 9.9 0 15 0 C15 4.95 15 9.9 15 15 C10.05 15 5.1 15 0 15 C0 10.05 0 5.1 0 0 Z " fill="#EFEFEE" transform="translate(45,240)"/>
<path d="M0 0 C4.95 0 9.9 0 15 0 C15 4.95 15 9.9 15 15 C10.05 15 5.1 15 0 15 C0 10.05 0 5.1 0 0 Z " fill="#FFFFFF" transform="translate(30,240)"/>
<path d="M0 0 C4.95 0 9.9 0 15 0 C15 4.95 15 9.9 15 15 C10.05 15 5.1 15 0 15 C0 10.05 0 5.1 0 0 Z " fill="#EFEFEE" transform="translate(15,240)"/>
<path d="M0 0 C4.95 0 9.9 0 15 0 C15 4.95 15 9.9 15 15 C10.05 15 5.1 15 0 15 C0 10.05 0 5.1 0 0 Z " fill="#FFFFFF" transform="translate(0,240)"/>
<path d="M0 0 C4.95 0 9.9 0 15 0 C15 4.95 15 9.9 15 15 C10.05 15 5.1 15 0 15 C0 10.05 0 5.1 0 0 Z " fill="#FFFFFF" transform="translate(345,225)"/>
<path d="M0 0 C4.95 0 9.9 0 15 0 C15 4.95 15 9.9 15 15 C10.05 15 5.1 15 0 15 C0 10.05 0 5.1 0 0 Z " fill="#EFEFEE" transform="translate(330,225)"/>
<path d="M0 0 C4.95 0 9.9 0 15 0 C15 4.95 15 9.9 15 15 C10.05 15 5.1 15 0 15 C0 10.05 0 5.1 0 0 Z " fill="#FFFFFF" transform="translate(315,225)"/>
<path d="M0 0 C4.95 0 9.9 0 15 0 C15 4.95 15 9.9 15 15 C10.05 15 5.1 15 0 15 C0 10.05 0 5.1 0 0 Z " fill="#EFEFEE" transform="translate(300,225)"/>
<path d="M0 0 C4.95 0 9.9 0 15 0 C15 4.95 15 9.9 15 15 C10.05 15 5.1 15 0 15 C0 10.05 0 5.1 0 0 Z " fill="#FFFFFF" transform="translate(285,225)"/>
<path d="M0 0 C4.95 0 9.9 0 15 0 C15 4.95 15 9.9 15 15 C10.05 15 5.1 15 0 15 C0 10.05 0 5.1 0 0 Z " fill="#EFEFEE" transform="translate(270,225)"/>
<path d="M0 0 C4.95 0 9.9 0 15 0 C15 4.95 15 9.9 15 15 C10.05 15 5.1 15 0 15 C0 10.05 0 5.1 0 0 Z " fill="#FFFFFF" transform="translate(75,225)"/>
<path d="M0 0 C4.95 0 9.9 0 15 0 C15 4.95 15 9.9 15 15 C10.05 15 5.1 15 0 15 C0 10.05 0 5.1 0 0 Z " fill="#EFEFEE" transform="translate(60,225)"/>
<path d="M0 0 C4.95 0 9.9 0 15 0 C15 4.95 15 9.9 15 15 C10.05 15 5.1 15 0 15 C0 10.05 0 5.1 0 0 Z " fill="#FFFFFF" transform="translate(45,225)"/>
<path d="M0 0 C4.95 0 9.9 0 15 0 C15 4.95 15 9.9 15 15 C10.05 15 5.1 15 0 15 C0 10.05 0 5.1 0 0 Z " fill="#EFEFEE" transform="translate(30,225)"/>
<path d="M0 0 C4.95 0 9.9 0 15 0 C15 4.95 15 9.9 15 15 C10.05 15 5.1 15 0 15 C0 10.05 0 5.1 0 0 Z " fill="#FFFFFF" transform="translate(15,225)"/>
<path d="M0 0 C4.95 0 9.9 0 15 0 C15 4.95 15 9.9 15 15 C10.05 15 5.1 15 0 15 C0 10.05 0 5.1 0 0 Z " fill="#EFEFEE" transform="translate(0,225)"/>
<path d="M0 0 C4.95 0 9.9 0 15 0 C15 4.95 15 9.9 15 15 C10.05 15 5.1 15 0 15 C0 10.05 0 5.1 0 0 Z " fill="#EFEFEE" transform="translate(345,210)"/>
<path d="M0 0 C4.95 0 9.9 0 15 0 C15 4.95 15 9.9 15 15 C10.05 15 5.1 15 0 15 C0 10.05 0 5.1 0 0 Z " fill="#FFFFFF" transform="translate(330,210)"/>
<path d="M0 0 C4.95 0 9.9 0 15 0 C15 4.95 15 9.9 15 15 C10.05 15 5.1 15 0 15 C0 10.05 0 5.1 0 0 Z " fill="#EFEFEE" transform="translate(315,210)"/>
<path d="M0 0 C4.95 0 9.9 0 15 0 C15 4.95 15 9.9 15 15 C10.05 15 5.1 15 0 15 C0 10.05 0 5.1 0 0 Z " fill="#FFFFFF" transform="translate(300,210)"/>
<path d="M0 0 C4.95 0 9.9 0 15 0 C15 4.95 15 9.9 15 15 C10.05 15 5.1 15 0 15 C0 10.05 0 5.1 0 0 Z " fill="#EFEFEE" transform="translate(285,210)"/>
<path d="M0 0 C4.95 0 9.9 0 15 0 C15 4.95 15 9.9 15 15 C10.05 15 5.1 15 0 15 C0 10.05 0 5.1 0 0 Z " fill="#FFFFFF" transform="translate(270,210)"/>
<path d="M0 0 C4.95 0 9.9 0 15 0 C15 4.95 15 9.9 15 15 C10.05 15 5.1 15 0 15 C0 10.05 0 5.1 0 0 Z " fill="#EFEFEE" transform="translate(75,210)"/>
<path d="M0 0 C4.95 0 9.9 0 15 0 C15 4.95 15 9.9 15 15 C10.05 15 5.1 15 0 15 C0 10.05 0 5.1 0 0 Z " fill="#FFFFFF" transform="translate(60,210)"/>
<path d="M0 0 C4.95 0 9.9 0 15 0 C15 4.95 15 9.9 15 15 C10.05 15 5.1 15 0 15 C0 10.05 0 5.1 0 0 Z " fill="#EFEFEE" transform="translate(45,210)"/>
<path d="M0 0 C4.95 0 9.9 0 15 0 C15 4.95 15 9.9 15 15 C10.05 15 5.1 15 0 15 C0 10.05 0 5.1 0 0 Z " fill="#FFFFFF" transform="translate(30,210)"/>
<path d="M0 0 C4.95 0 9.9 0 15 0 C15 4.95 15 9.9 15 15 C10.05 15 5.1 15 0 15 C0 10.05 0 5.1 0 0 Z " fill="#EFEFEE" transform="translate(15,210)"/>
<path d="M0 0 C4.95 0 9.9 0 15 0 C15 4.95 15 9.9 15 15 C10.05 15 5.1 15 0 15 C0 10.05 0 5.1 0 0 Z " fill="#FFFFFF" transform="translate(0,210)"/>
<path d="M0 0 C4.95 0 9.9 0 15 0 C15 4.95 15 9.9 15 15 C10.05 15 5.1 15 0 15 C0 10.05 0 5.1 0 0 Z " fill="#FFFFFF" transform="translate(345,195)"/>
<path d="M0 0 C4.95 0 9.9 0 15 0 C15 4.95 15 9.9 15 15 C10.05 15 5.1 15 0 15 C0 10.05 0 5.1 0 0 Z " fill="#EFEFEE" transform="translate(330,195)"/>
<path d="M0 0 C4.95 0 9.9 0 15 0 C15 4.95 15 9.9 15 15 C10.05 15 5.1 15 0 15 C0 10.05 0 5.1 0 0 Z " fill="#FFFFFF" transform="translate(315,195)"/>
<path d="M0 0 C4.95 0 9.9 0 15 0 C15 4.95 15 9.9 15 15 C10.05 15 5.1 15 0 15 C0 10.05 0 5.1 0 0 Z " fill="#EFEFEE" transform="translate(300,195)"/>
<path d="M0 0 C4.95 0 9.9 0 15 0 C15 4.95 15 9.9 15 15 C10.05 15 5.1 15 0 15 C0 10.05 0 5.1 0 0 Z " fill="#FFFFFF" transform="translate(285,195)"/>
<path d="M0 0 C4.95 0 9.9 0 15 0 C15 4.95 15 9.9 15 15 C10.05 15 5.1 15 0 15 C0 10.05 0 5.1 0 0 Z " fill="#EFEFEE" transform="translate(270,195)"/>
<path d="M0 0 C4.95 0 9.9 0 15 0 C15 4.95 15 9.9 15 15 C10.05 15 5.1 15 0 15 C0 10.05 0 5.1 0 0 Z " fill="#FFFFFF" transform="translate(75,195)"/>
<path d="M0 0 C4.95 0 9.9 0 15 0 C15 4.95 15 9.9 15 15 C10.05 15 5.1 15 0 15 C0 10.05 0 5.1 0 0 Z " fill="#EFEFEE" transform="translate(60,195)"/>
<path d="M0 0 C4.95 0 9.9 0 15 0 C15 4.95 15 9.9 15 15 C10.05 15 5.1 15 0 15 C0 10.05 0 5.1 0 0 Z " fill="#FFFFFF" transform="translate(45,195)"/>
<path d="M0 0 C4.95 0 9.9 0 15 0 C15 4.95 15 9.9 15 15 C10.05 15 5.1 15 0 15 C0 10.05 0 5.1 0 0 Z " fill="#EFEFEE" transform="translate(30,195)"/>
<path d="M0 0 C4.95 0 9.9 0 15 0 C15 4.95 15 9.9 15 15 C10.05 15 5.1 15 0 15 C0 10.05 0 5.1 0 0 Z " fill="#FFFFFF" transform="translate(15,195)"/>
<path d="M0 0 C4.95 0 9.9 0 15 0 C15 4.95 15 9.9 15 15 C10.05 15 5.1 15 0 15 C0 10.05 0 5.1 0 0 Z " fill="#EFEFEE" transform="translate(0,195)"/>
<path d="M0 0 C4.95 0 9.9 0 15 0 C15 4.95 15 9.9 15 15 C10.05 15 5.1 15 0 15 C0 10.05 0 5.1 0 0 Z " fill="#EFEFEE" transform="translate(345,180)"/>
<path d="M0 0 C4.95 0 9.9 0 15 0 C15 4.95 15 9.9 15 15 C10.05 15 5.1 15 0 15 C0 10.05 0 5.1 0 0 Z " fill="#FFFFFF" transform="translate(330,180)"/>
<path d="M0 0 C4.95 0 9.9 0 15 0 C15 4.95 15 9.9 15 15 C10.05 15 5.1 15 0 15 C0 10.05 0 5.1 0 0 Z " fill="#EFEFEE" transform="translate(15,180)"/>
<path d="M0 0 C4.95 0 9.9 0 15 0 C15 4.95 15 9.9 15 15 C10.05 15 5.1 15 0 15 C0 10.05 0 5.1 0 0 Z " fill="#FFFFFF" transform="translate(0,180)"/>
<path d="M0 0 C4.95 0 9.9 0 15 0 C15 4.95 15 9.9 15 15 C10.05 15 5.1 15 0 15 C0 10.05 0 5.1 0 0 Z " fill="#FFFFFF" transform="translate(345,165)"/>
<path d="M0 0 C4.95 0 9.9 0 15 0 C15 4.95 15 9.9 15 15 C10.05 15 5.1 15 0 15 C0 10.05 0 5.1 0 0 Z " fill="#FFFFFF" transform="translate(0,30)"/>
<path d="M0 0 C4.95 0 9.9 0 15 0 C15 4.95 15 9.9 15 15 C10.05 15 5.1 15 0 15 C0 10.05 0 5.1 0 0 Z " fill="#FFFFFF" transform="translate(345,15)"/>
<path d="M0 0 C4.95 0 9.9 0 15 0 C15 4.95 15 9.9 15 15 C10.05 15 5.1 15 0 15 C0 10.05 0 5.1 0 0 Z " fill="#EFEFEE" transform="translate(330,15)"/>
<path d="M0 0 C4.95 0 9.9 0 15 0 C15 4.95 15 9.9 15 15 C10.05 15 5.1 15 0 15 C0 10.05 0 5.1 0 0 Z " fill="#FFFFFF" transform="translate(315,15)"/>
<path d="M0 0 C4.95 0 9.9 0 15 0 C15 4.95 15 9.9 15 15 C10.05 15 5.1 15 0 15 C0 10.05 0 5.1 0 0 Z " fill="#EFEFEE" transform="translate(300,15)"/>
<path d="M0 0 C4.95 0 9.9 0 15 0 C15 4.95 15 9.9 15 15 C10.05 15 5.1 15 0 15 C0 10.05 0 5.1 0 0 Z " fill="#FFFFFF" transform="translate(285,15)"/>
<path d="M0 0 C4.95 0 9.9 0 15 0 C15 4.95 15 9.9 15 15 C10.05 15 5.1 15 0 15 C0 10.05 0 5.1 0 0 Z " fill="#FFFFFF" transform="translate(45,15)"/>
<path d="M0 0 C4.95 0 9.9 0 15 0 C15 4.95 15 9.9 15 15 C10.05 15 5.1 15 0 15 C0 10.05 0 5.1 0 0 Z " fill="#FFFFFF" transform="translate(15,15)"/>
<path d="M0 0 C4.95 0 9.9 0 15 0 C15 4.95 15 9.9 15 15 C10.05 15 5.1 15 0 15 C0 10.05 0 5.1 0 0 Z " fill="#EFEFEE" transform="translate(0,15)"/>
<path d="M0 0 C4.95 0 9.9 0 15 0 C15 4.95 15 9.9 15 15 C10.05 15 5.1 15 0 15 C0 10.05 0 5.1 0 0 Z " fill="#EFEFEE" transform="translate(345,0)"/>
<path d="M0 0 C4.95 0 9.9 0 15 0 C15 4.95 15 9.9 15 15 C10.05 15 5.1 15 0 15 C0 10.05 0 5.1 0 0 Z " fill="#FFFFFF" transform="translate(330,0)"/>
<path d="M0 0 C4.95 0 9.9 0 15 0 C15 4.95 15 9.9 15 15 C10.05 15 5.1 15 0 15 C0 10.05 0 5.1 0 0 Z " fill="#EFEFEE" transform="translate(315,0)"/>
<path d="M0 0 C4.95 0 9.9 0 15 0 C15 4.95 15 9.9 15 15 C10.05 15 5.1 15 0 15 C0 10.05 0 5.1 0 0 Z " fill="#FFFFFF" transform="translate(300,0)"/>
<path d="M0 0 C4.95 0 9.9 0 15 0 C15 4.95 15 9.9 15 15 C10.05 15 5.1 15 0 15 C0 10.05 0 5.1 0 0 Z " fill="#EFEFEE" transform="translate(285,0)"/>
<path d="M0 0 C4.95 0 9.9 0 15 0 C15 4.95 15 9.9 15 15 C10.05 15 5.1 15 0 15 C0 10.05 0 5.1 0 0 Z " fill="#EFEFEE" transform="translate(45,0)"/>
<path d="M0 0 C4.95 0 9.9 0 15 0 C15 4.95 15 9.9 15 15 C10.05 15 5.1 15 0 15 C0 10.05 0 5.1 0 0 Z " fill="#FFFFFF" transform="translate(30,0)"/>
<path d="M0 0 C4.95 0 9.9 0 15 0 C15 4.95 15 9.9 15 15 C10.05 15 5.1 15 0 15 C0 10.05 0 5.1 0 0 Z " fill="#FFFFFF" transform="translate(0,0)"/>
<path d="M0 0 C13.75 -0.125 13.75 -0.125 16 1 C15.67 5.95 15.34 10.9 15 16 C14.34 15.67 13.68 15.34 13 15 C8.66396021 14.8606671 4.33919329 14.95745889 0 15 C0 10.05 0 5.1 0 0 Z " fill="#EAEAE9" transform="translate(60,15)"/>
<path d="M0 0 C9.03614458 -0.48192771 9.03614458 -0.48192771 13.125 1.5625 C15 4 15 4 15.5625 7.4375 C14.88382929 11.73574781 14.47793758 13.33088511 11 16 C7.23178997 16.42290702 3.81354398 16.22699667 0 16 C0 10.72 0 5.44 0 0 Z " fill="#020000" transform="translate(239,92)"/>
<path d="M0 0 C10.13528336 -0.60329068 10.13528336 -0.60329068 13.6875 1.875 C15.59214658 6.4098728 15.26134419 10.0997965 15 15 C10.05 15 5.1 15 0 15 C0 10.05 0 5.1 0 0 Z " fill="#EFEFEE" transform="translate(0,165)"/>
<path d="M0 0 C4.95 0 9.9 0 15 0 C15 4.95 15 9.9 15 15 C13.2675 14.814375 11.535 14.62875 9.75 14.4375 C5.95261384 14.0306372 3.7857779 14.05355553 0 15 C0 10.05 0 5.1 0 0 Z " fill="#EEEEED" transform="translate(315,30)"/>
<path d="M0 0 C7.875 1.125 7.875 1.125 10.96484375 1.75390625 C11.61904297 1.88603516 12.27324219 2.01816406 12.94726562 2.15429688 C13.60404297 2.28900391 14.26082031 2.42371094 14.9375 2.5625 C15.62134766 2.70107422 16.30519531 2.83964844 17.00976562 2.98242188 C18.67353986 3.31983064 20.33682315 3.65965879 22 4 C22 4.33 22 4.66 22 5 C19.69 5 17.38 5 15 5 C15 8.3 15 11.6 15 15 C10.05 15 5.1 15 0 15 C0 10.05 0 5.1 0 0 Z " fill="#FDFDFD" transform="translate(30,180)"/>
<path d="M0 0 C4.29 0 8.58 0 13 0 C13 4.95 13 9.9 13 15 C3.33568561 15.69862514 3.33568561 15.69862514 0.05078125 13.98046875 C-1.375 12.5625 -1.375 12.5625 -3 9 C-2.47020398 5.64098397 -1.38854467 3.16013615 0 0 Z " fill="#EDEDEC" transform="translate(347,90)"/>
<path d="M0 0 C4.95 0 9.9 0 15 0 C15.33 3.96 15.66 7.92 16 12 C10.39 12.66 4.78 13.32 -1 14 C-0.67 9.38 -0.34 4.76 0 0 Z " fill="#FEFEFE" transform="translate(30,30)"/>
<path d="M0 0 C2.97 0 5.94 0 9 0 C9 4.95 9 9.9 9 15 C4.05 15 -0.9 15 -6 15 C-6 12.03 -6 9.06 -6 6 C-5.195625 5.7525 -4.39125 5.505 -3.5625 5.25 C-2.2940625 4.63125 -2.2940625 4.63125 -1 4 C-0.67 2.68 -0.34 1.36 0 0 Z " fill="#FEFEFE" transform="translate(231,255)"/>
<path d="M0 0 C3.96 0 7.92 0 12 0 C12 4.95 12 9.9 12 15 C7.38 15.33 2.76 15.66 -2 16 C-1.34 10.72 -0.68 5.44 0 0 Z " fill="#ECECEB" transform="translate(258,210)"/>
<path d="M0 0 C-0.99 0.495 -0.99 0.495 -2 1 C-2.46898963 3.8159849 -2.46898963 3.8159849 -2.625 7.0625 C-2.74875 9.021875 -2.8725 10.98125 -3 13 C-7.95 13 -12.9 13 -18 13 C-18 9.37 -18 5.74 -18 2 C-15.75256955 1.46818825 -13.50192898 0.94992874 -11.25 0.4375 C-9.99703125 0.14746094 -8.7440625 -0.14257812 -7.453125 -0.44140625 C-4.40526252 -0.93444283 -2.82358172 -1.07666879 0 0 Z " fill="#FDFDFD" transform="translate(318,182)"/>
<path d="M0 0 C3.63 0 7.26 0 11 0 C11 4.95 11 9.9 11 15 C5.06 15.495 5.06 15.495 -1 16 C-0.67 10.72 -0.34 5.44 0 0 Z " fill="#EEEEED" transform="translate(259,180)"/>
<path d="M0 0 C2.31907364 3.91735412 3.12493259 8.17331524 4.125 12.5625 C4.30675781 13.33013672 4.48851562 14.09777344 4.67578125 14.88867188 C5.39375765 17.98460772 6 20.81128209 6 24 C2.04 24 -1.92 24 -6 24 C-5.55327444 18.52761188 -4.41043351 13.3629393 -3 8.0625 C-2.82178711 7.38759521 -2.64357422 6.71269043 -2.45996094 6.01733398 C-1.1297533 1.1297533 -1.1297533 1.1297533 0 0 Z " fill="#0A0101" transform="translate(179,93)"/>
<path d="M0 0 C0 3.63 0 7.26 0 11 C-4.95 11 -9.9 11 -15 11 C-15 7.7 -15 4.4 -15 1 C-9.91913204 0.15318867 -5.15171623 -0.09038099 0 0 Z " fill="#EFEFEE" transform="translate(60,184)"/>
<path d="M0 0 C2.31 0 4.62 0 7 0 C7 4.95 7 9.9 7 15 C2.71 15 -1.58 15 -6 15 C-2.57142857 2.75510204 -2.57142857 2.75510204 0 0 Z " fill="#FBFBFB" transform="translate(353,75)"/>
<path d="M0 0 C4.95 0.33 9.9 0.66 15 1 C15 4.3 15 7.6 15 11 C10.05 11 5.1 11 0 11 C0 7.37 0 3.74 0 0 Z " fill="#EFEFEE" transform="translate(285,184)"/>
<path d="M0 0 C9.9 0 19.8 0 30 0 C30 0.66 30 1.32 30 2 C33.63 2 37.26 2 41 2 C41 2.33 41 2.66 41 3 C30.605 3.495 30.605 3.495 20 4 C20 5.65 20 7.3 20 9 C18.33984375 7.99088542 16.6796875 6.98177083 15.01953125 5.97265625 C11.17996056 4.12342395 7.1281283 3.86439815 2.91796875 3.68359375 C1.98662109 3.64169922 1.05527344 3.59980469 0.09570312 3.55664062 C-0.86400391 3.51732422 -1.82371094 3.47800781 -2.8125 3.4375 C-3.79154297 3.39431641 -4.77058594 3.35113281 -5.77929688 3.30664062 C-8.18607027 3.2009774 -10.59293983 3.09887673 -13 3 C-13 2.67 -13 2.34 -13 2 C-6.565 1.505 -6.565 1.505 0 1 C0 0.67 0 0.34 0 0 Z " fill="#EBEBEB" transform="translate(135,0)"/>
<path d="M0 0 C0.33 0 0.66 0 1 0 C1.13277344 1.21816406 1.26554687 2.43632812 1.40234375 3.69140625 C1.58066967 5.3151107 1.75905843 6.93880825 1.9375 8.5625 C2.02451172 9.36236328 2.11152344 10.16222656 2.20117188 10.98632812 C2.71761452 15.67256697 3.30521531 20.33680546 4 25 C2 22 2 22 2 20 C-0.97 20 -3.94 20 -7 20 C-7 15.05 -7 10.1 -7 5 C-4.69 5 -2.38 5 0 5 C0 3.35 0 1.7 0 0 Z " fill="#FCFCFC" transform="translate(97,205)"/>
<path d="M0 0 C-0.14151828 2.0836309 -0.28837936 4.16689938 -0.4375 6.25 C-0.51871094 7.41015625 -0.59992187 8.5703125 -0.68359375 9.765625 C-0.93247787 12.30977376 -1.28114942 14.55953248 -2 17 C-4.64 16.67 -7.28 16.34 -10 16 C-10 11.05 -10 6.1 -10 1 C-8.535625 0.835 -7.07125 0.67 -5.5625 0.5 C-4.32693359 0.36078125 -4.32693359 0.36078125 -3.06640625 0.21875 C-1 0 -1 0 0 0 Z " fill="#FDFDFD" transform="translate(10,119)"/>
<path d="M0 0 C4.95 0 9.9 0 15 0 C15 4.95 15 9.9 15 15 C14.01 15 13.02 15 12 15 C11.67 15.66 11.34 16.32 11 17 C11 13.37 11 9.74 11 6 C9.30875 6.020625 7.6175 6.04125 5.875 6.0625 C1.80116201 6.06775657 -2.00181841 5.8644717 -6 5 C-5.67 4.01 -5.34 3.02 -5 2 C-5 2.66 -5 3.32 -5 4 C-3.35 4 -1.7 4 0 4 C0 2.68 0 1.36 0 0 Z " fill="#FAFAFA" transform="translate(270,0)"/>
<path d="M0 0 C4.95 0 9.9 0 15 0 C15 2.64 15 5.28 15 8 C12.87631556 8.22134176 10.75095976 8.42670007 8.625 8.625 C6.84996094 8.79902344 6.84996094 8.79902344 5.0390625 8.9765625 C4.03617188 8.98429687 3.03328125 8.99203125 2 9 C1.34 8.34 0.68 7.68 0 7 C0 4.69 0 2.38 0 0 Z " fill="#EDEDEC" transform="translate(45,30)"/>
<path d="M0 0 C4.95 0 9.9 0 15 0 C15.33 0.99 15.66 1.98 16 3 C18.97 3 21.94 3 25 3 C25 3.99 25 4.98 25 6 C23.99839844 5.98839844 22.99679688 5.97679687 21.96484375 5.96484375 C20.62239772 5.95545602 19.27994964 5.94635688 17.9375 5.9375 C16.62652344 5.92589844 15.31554687 5.91429687 13.96484375 5.90234375 C6.85471747 5.76366032 6.85471747 5.76366032 1 9 C0.67 8.34 0.34 7.68 0 7 C-1.89533342 6.53476937 -1.89533342 6.53476937 -4.0625 6.375 C-5.361875 6.25125 -6.66125 6.1275 -8 6 C-8 5.67 -8 5.34 -8 5 C-5.36 5 -2.72 5 0 5 C0 3.35 0 1.7 0 0 Z " fill="#F6F6F6" transform="translate(210,0)"/>
<path d="M0 0 C0.33 0 0.66 0 1 0 C1.33 6.93 1.66 13.86 2 21 C1.67 20.34 1.34 19.68 1 19 C-1.31 19 -3.62 19 -6 19 C-6 14.05 -6 9.1 -6 4 C-4.02 4 -2.04 4 0 4 C0 2.68 0 1.36 0 0 Z " fill="#FEFEFE" transform="translate(96,176)"/>
<path d="M0 0 C3.3 0.33 6.6 0.66 10 1 C10 5.95 10 10.9 10 16 C8.35 16 6.7 16 5 16 C4.1605118 13.89828133 3.32860344 11.79353375 2.5 9.6875 C2.0359375 8.51574219 1.571875 7.34398438 1.09375 6.13671875 C0 3 0 3 0 0 Z " fill="#FCFCFC" transform="translate(350,104)"/>
<path d="M0 0 C6 0 6 0 8 1 C7.71831703 2.95979427 7.42433283 4.91782378 7.125 6.875 C6.96257813 7.96554688 6.80015625 9.05609375 6.6328125 10.1796875 C6 13 6 13 4 15 C2.68 15 1.36 15 0 15 C0 10.05 0 5.1 0 0 Z " fill="#EBEBEA" transform="translate(0,135)"/>
<path d="M0 0 C4.95 0 9.9 0 15 0 C15 1.32 15 2.64 15 4 C15.99 4.66 16.98 5.32 18 6 C12.06 6.33 6.12 6.66 0 7 C0 4.69 0 2.38 0 0 Z " fill="#EDEDED" transform="translate(75,0)"/>
<path d="M0 0 C4.95 0 9.9 0 15 0 C15 2.31 15 4.62 15 7 C9.87416389 7.10251672 5.05002222 7.03590199 0 6 C0 4.02 0 2.04 0 0 Z " fill="#E8E8E7" transform="translate(195,0)"/>
<path d="M0 0 C1.31275643 3.9382693 0.37070685 5.01942325 -1.4375 8.6875 C-6.95754668 19.15916751 -14.06992984 24.56070996 -25 29 C-25.66 29 -26.32 29 -27 29 C-27.33 28.01 -27.66 27.02 -28 26 C-27.23816406 25.731875 -26.47632813 25.46375 -25.69140625 25.1875 C-14.30135901 20.86468557 -7.1821001 15.07179621 -2 4 C-1.33517432 2.66574776 -0.66906582 1.33213105 0 0 Z " fill="#EFD953" transform="translate(215,219)"/>
<path d="M0 0 C0.33 0 0.66 0 1 0 C1 6.6 1 13.2 1 20 C-2.96 20.495 -2.96 20.495 -7 21 C-6.28859578 18.62865259 -5.57685713 16.25741398 -4.86328125 13.88671875 C-4.29147143 11.9746488 -3.72627266 10.06058833 -3.16796875 8.14453125 C-2.90628906 7.25121094 -2.64460938 6.35789062 -2.375 5.4375 C-2.13523437 4.61121094 -1.89546875 3.78492188 -1.6484375 2.93359375 C-1 1 -1 1 0 0 Z " fill="#EDECEC" transform="translate(359,55)"/>
<path d="M0 0 C0.33 0.66 0.66 1.32 1 2 C2.65 2 4.3 2 6 2 C6 6.95 6 11.9 6 17 C4.35 17 2.7 17 1 17 C-0.13480527 13.39006828 -0.10015767 10.0157673 -0.0625 6.25 C-0.05347656 5.07953125 -0.04445313 3.9090625 -0.03515625 2.703125 C-0.02355469 1.81109375 -0.01195312 0.9190625 0 0 Z " fill="#E2E2E1" transform="translate(354,118)"/>
<path d="M0 0 C0.33 0 0.66 0 1 0 C1.33 1.98 1.66 3.96 2 6 C2.99 6 3.98 6 5 6 C5 10.95 5 15.9 5 21 C3.02 21.33 1.04 21.66 -1 22 C-0.67 14.74 -0.34 7.48 0 0 Z " fill="#E5E5E4" transform="translate(280,9)"/>
<path d="M0 0 C-0.33 2.97 -0.66 5.94 -1 9 C-4.3 9.33 -7.6 9.66 -11 10 C-11.33 7.69 -11.66 5.38 -12 3 C-10.3789897 2.30314502 -8.75303934 1.61777139 -7.125 0.9375 C-6.22007812 0.55464844 -5.31515625 0.17179688 -4.3828125 -0.22265625 C-2 -1 -2 -1 0 0 Z " fill="#EBEBEA" transform="translate(241,246)"/>
<path d="M0 0 C0 4.69390116 -0.56025721 9.32773281 -1 14 C-4.96 14 -8.92 14 -13 14 C-8.88380164 9.08064098 -4.59589638 4.47352044 0 0 Z " fill="#FEFEFE" transform="translate(196,271)"/>
<path d="M0 0 C4.95 0 9.9 0 15 0 C15 0.99 15 1.98 15 3 C16.65 3 18.3 3 20 3 C20 3.33 20 3.66 20 4 C12.66236293 5.17402193 5.41834582 5.09377123 -2 5 C-1.34 4.67 -0.68 4.34 0 4 C0 2.68 0 1.36 0 0 Z " fill="#FBFBFB" transform="translate(90,0)"/>
<path d="M0 0 C4.95 0 9.9 0 15 0 C15 1.65 15 3.3 15 5 C10.05 5 5.1 5 0 5 C0 3.35 0 1.7 0 0 Z " fill="#FFFFFF" transform="translate(345,285)"/>
<path d="M0 0 C4.95 0 9.9 0 15 0 C15 1.65 15 3.3 15 5 C10.05 5 5.1 5 0 5 C0 3.35 0 1.7 0 0 Z " fill="#EFEFEE" transform="translate(330,285)"/>
<path d="M0 0 C4.95 0 9.9 0 15 0 C15 1.65 15 3.3 15 5 C10.05 5 5.1 5 0 5 C0 3.35 0 1.7 0 0 Z " fill="#FFFFFF" transform="translate(315,285)"/>
<path d="M0 0 C4.95 0 9.9 0 15 0 C15 1.65 15 3.3 15 5 C10.05 5 5.1 5 0 5 C0 3.35 0 1.7 0 0 Z " fill="#EFEFEE" transform="translate(300,285)"/>
<path d="M0 0 C4.95 0 9.9 0 15 0 C15 1.65 15 3.3 15 5 C10.05 5 5.1 5 0 5 C0 3.35 0 1.7 0 0 Z " fill="#FFFFFF" transform="translate(285,285)"/>
<path d="M0 0 C4.95 0 9.9 0 15 0 C15 1.65 15 3.3 15 5 C10.05 5 5.1 5 0 5 C0 3.35 0 1.7 0 0 Z " fill="#EFEFEE" transform="translate(270,285)"/>
<path d="M0 0 C4.95 0 9.9 0 15 0 C15 1.65 15 3.3 15 5 C10.05 5 5.1 5 0 5 C0 3.35 0 1.7 0 0 Z " fill="#FFFFFF" transform="translate(255,285)"/>
<path d="M0 0 C4.95 0 9.9 0 15 0 C15 1.65 15 3.3 15 5 C10.05 5 5.1 5 0 5 C0 3.35 0 1.7 0 0 Z " fill="#EFEFEE" transform="translate(240,285)"/>
<path d="M0 0 C4.95 0 9.9 0 15 0 C15 1.65 15 3.3 15 5 C10.05 5 5.1 5 0 5 C0 3.35 0 1.7 0 0 Z " fill="#FFFFFF" transform="translate(225,285)"/>
<path d="M0 0 C4.95 0 9.9 0 15 0 C15 1.65 15 3.3 15 5 C10.05 5 5.1 5 0 5 C0 3.35 0 1.7 0 0 Z " fill="#EFEFEE" transform="translate(210,285)"/>
<path d="M0 0 C4.95 0 9.9 0 15 0 C15 1.65 15 3.3 15 5 C10.05 5 5.1 5 0 5 C0 3.35 0 1.7 0 0 Z " fill="#FFFFFF" transform="translate(195,285)"/>
<path d="M0 0 C4.95 0 9.9 0 15 0 C15 1.65 15 3.3 15 5 C10.05 5 5.1 5 0 5 C0 3.35 0 1.7 0 0 Z " fill="#EFEFEE" transform="translate(150,285)"/>
<path d="M0 0 C4.95 0 9.9 0 15 0 C15 1.65 15 3.3 15 5 C10.05 5 5.1 5 0 5 C0 3.35 0 1.7 0 0 Z " fill="#FFFFFF" transform="translate(135,285)"/>
<path d="M0 0 C4.95 0 9.9 0 15 0 C15 1.65 15 3.3 15 5 C10.05 5 5.1 5 0 5 C0 3.35 0 1.7 0 0 Z " fill="#EFEFEE" transform="translate(120,285)"/>
<path d="M0 0 C4.95 0 9.9 0 15 0 C15 1.65 15 3.3 15 5 C10.05 5 5.1 5 0 5 C0 3.35 0 1.7 0 0 Z " fill="#FFFFFF" transform="translate(105,285)"/>
<path d="M0 0 C4.95 0 9.9 0 15 0 C15 1.65 15 3.3 15 5 C10.05 5 5.1 5 0 5 C0 3.35 0 1.7 0 0 Z " fill="#EFEFEE" transform="translate(90,285)"/>
<path d="M0 0 C4.95 0 9.9 0 15 0 C15 1.65 15 3.3 15 5 C10.05 5 5.1 5 0 5 C0 3.35 0 1.7 0 0 Z " fill="#FFFFFF" transform="translate(75,285)"/>
<path d="M0 0 C4.95 0 9.9 0 15 0 C15 1.65 15 3.3 15 5 C10.05 5 5.1 5 0 5 C0 3.35 0 1.7 0 0 Z " fill="#EFEFEE" transform="translate(60,285)"/>
<path d="M0 0 C4.95 0 9.9 0 15 0 C15 1.65 15 3.3 15 5 C10.05 5 5.1 5 0 5 C0 3.35 0 1.7 0 0 Z " fill="#FFFFFF" transform="translate(45,285)"/>
<path d="M0 0 C4.95 0 9.9 0 15 0 C15 1.65 15 3.3 15 5 C10.05 5 5.1 5 0 5 C0 3.35 0 1.7 0 0 Z " fill="#EFEFEE" transform="translate(30,285)"/>
<path d="M0 0 C4.95 0 9.9 0 15 0 C15 1.65 15 3.3 15 5 C10.05 5 5.1 5 0 5 C0 3.35 0 1.7 0 0 Z " fill="#EFEFEE" transform="translate(0,285)"/>
<path d="M0 0 C1.04449911 3.13349732 0.93423645 3.98968256 0 7 C0.88042969 6.98839844 1.76085937 6.97679687 2.66796875 6.96484375 C4.41013672 6.95130859 4.41013672 6.95130859 6.1875 6.9375 C7.33605469 6.92589844 8.48460937 6.91429687 9.66796875 6.90234375 C12.59300586 6.98807168 15.16316291 7.32150977 18 8 C18 8.33 18 8.66 18 9 C17.0821875 9.12117188 16.164375 9.24234375 15.21875 9.3671875 C8.69263976 10.25835802 2.34521474 11.22333987 -4 13 C-3.52511102 11.01980257 -3.04497141 9.04086365 -2.5625 7.0625 C-2.29566406 5.96035156 -2.02882813 4.85820313 -1.75390625 3.72265625 C-1 1 -1 1 0 0 Z " fill="#E7E7E6" transform="translate(294,38)"/>
<path d="M0 0 C1.77503906 0.03480469 1.77503906 0.03480469 3.5859375 0.0703125 C5.36871094 0.09738281 5.36871094 0.09738281 7.1875 0.125 C8.10273438 0.14820313 9.01796875 0.17140625 9.9609375 0.1953125 C9.9609375 1.8453125 9.9609375 3.4953125 9.9609375 5.1953125 C5.0109375 5.1953125 0.0609375 5.1953125 -5.0390625 5.1953125 C-5.0390625 0.98675239 -4.16473689 0.26765661 0 0 Z " fill="#EDEDEC" transform="translate(185.0390625,284.8046875)"/>
<path d="M0 0 C0.33 0.66 0.66 1.32 1 2 C0.2578125 3.76953125 0.2578125 3.76953125 -0.875 5.8125 C-3.42118892 10.41522613 -4.1314364 14.6273583 -4.09765625 19.86328125 C-4.09443359 20.74951172 -4.09121094 21.63574219 -4.08789062 22.54882812 C-4.07951172 23.46083984 -4.07113281 24.37285156 -4.0625 25.3125 C-4.05798828 26.24384766 -4.05347656 27.17519531 -4.04882812 28.13476562 C-4.03709234 30.42324373 -4.02067363 32.71158808 -4 35 C-4.66 35 -5.32 35 -6 35 C-6 24.11 -6 13.22 -6 2 C-4.02 1.34 -2.04 0.68 0 0 Z " fill="#E8E8E8" transform="translate(6,58)"/>
<path d="M0 0 C0 3.63 0 7.26 0 11 C-7.625 12 -7.625 12 -11 12 C-9.90259375 10.37042688 -8.79681808 8.74648772 -7.6875 7.125 C-7.07261719 6.22007812 -6.45773437 5.31515625 -5.82421875 4.3828125 C-2.46885246 0 -2.46885246 0 0 0 Z " fill="#F8F8F8" transform="translate(345,154)"/>
<path d="M0 0 C4.95 0 9.9 0 15 0 C15 0.66 15 1.32 15 2 C17.31 2.33 19.62 2.66 22 3 C22 3.33 22 3.66 22 4 C18.7 4 15.4 4 12 4 C12 4.99 12 5.98 12 7 C11.34 6.67 10.68 6.34 10 6 C10 5.34 10 4.68 10 4 C6.7 4 3.4 4 0 4 C0 2.68 0 1.36 0 0 Z " fill="#E7E7E6" transform="translate(225,0)"/>
<path d="M0 0 C4.95 0 9.9 0 15 0 C14.67 1.32 14.34 2.64 14 4 C5.09 3.67 -3.82 3.34 -13 3 C-13 2.67 -13 2.34 -13 2 C-6.565 1.505 -6.565 1.505 0 1 C0 0.67 0 0.34 0 0 Z " fill="#DDDDDD" transform="translate(135,0)"/>
<path d="M0 0 C4.40970982 0.02293737 7.23965063 0.34488328 10.75 3.25 C10.42 4.24 10.09 5.23 9.75 6.25 C8.92242187 5.52876953 8.92242187 5.52876953 8.078125 4.79296875 C5.38856507 3.01045839 3.69178582 2.77248591 0.5 2.5625 C-1.0675 2.459375 -2.635 2.35625 -4.25 2.25 C-4.25 7.53 -4.25 12.81 -4.25 18.25 C-4.58 18.25 -4.91 18.25 -5.25 18.25 C-6.07264831 12.59429288 -6.67564759 6.97120437 -6.25 1.25 C-4.535532 -0.464468 -2.33657934 0.03748523 0 0 Z " fill="#D51515" transform="translate(243.25,89.75)"/>
<path d="M0 0 C2.875 -0.125 2.875 -0.125 6 0 C6.66 0.66 7.32 1.32 8 2 C7.44444444 6.55555556 7.44444444 6.55555556 6 8 C4.00041636 8.04080783 1.99954746 8.04254356 0 8 C0 5.36 0 2.72 0 0 Z " fill="#1C1C1B" transform="translate(97,37)"/>
<path d="M0 0 C2.875 -0.125 2.875 -0.125 6 0 C6.66 0.66 7.32 1.32 8 2 C7.44444444 6.55555556 7.44444444 6.55555556 6 8 C4.00041636 8.04080783 1.99954746 8.04254356 0 8 C0 5.36 0 2.72 0 0 Z " fill="#080605" transform="translate(134,21)"/>
<path d="M0 0 C0.66 0 1.32 0 2 0 C3.98 4.29 5.96 8.58 8 13 C5.36 12.67 2.72 12.34 0 12 C0 8.04 0 4.08 0 0 Z " fill="#F6F6F6" transform="translate(0,93)"/>
<path d="M0 0 C1.485 0.2475 1.485 0.2475 3 0.5 C9.94880525 1.39377749 17.00882501 1.07635992 24 1 C24 1.66 24 2.32 24 3 C20.73389423 4.63305288 17.14736773 4.14276152 13.5625 4.125 C12.78583984 4.12886719 12.00917969 4.13273438 11.20898438 4.13671875 C7.88918828 4.13099989 5.17006494 4.05668831 2 3 C2 2.34 2 1.68 2 1 C1.34 0.67 0.68 0.34 0 0 Z " fill="#FDEE60" transform="translate(164,245)"/>
<path d="M0 0 C2.64 0.33 5.28 0.66 8 1 C7.01 4.3 6.02 7.6 5 11 C4.67 10.01 4.34 9.02 4 8 C1.98491642 7.26676204 1.98491642 7.26676204 0 7 C0 4.69 0 2.38 0 0 Z " fill="#F7F7F7" transform="translate(120,248)"/>
<path d="M0 0 C1.2065625 0.0309375 1.2065625 0.0309375 2.4375 0.0625 C2.7675 1.7125 3.0975 3.3625 3.4375 5.0625 C6.0775 5.3925 8.7175 5.7225 11.4375 6.0625 C11.4375 6.3925 11.4375 6.7225 11.4375 7.0625 C6.4875 7.0625 1.5375 7.0625 -3.5625 7.0625 C-3.5625 0.08689024 -3.5625 0.08689024 0 0 Z " fill="#FEFEFE" transform="translate(282.5625,29.9375)"/>
<path d="M0 0 C1.5778125 0.1546875 1.5778125 0.1546875 3.1875 0.3125 C2.8575 1.9625 2.5275 3.6125 2.1875 5.3125 C-1.4425 5.3125 -5.0725 5.3125 -8.8125 5.3125 C-5.88314862 1.76177106 -4.6956049 0.38488565 0 0 Z " fill="#FAFAFA" transform="translate(207.8125,264.6875)"/>
<path d="M0 0 C1.90318884 2.85478326 2.4619099 4.41941308 3.125 7.6875 C3.29257813 8.49574219 3.46015625 9.30398437 3.6328125 10.13671875 C3.75398437 10.75160156 3.87515625 11.36648437 4 12 C2.02 12 0.04 12 -2 12 C-1.85962479 10.18706911 -1.71255111 8.3746557 -1.5625 6.5625 C-1.48128906 5.55316406 -1.40007812 4.54382813 -1.31640625 3.50390625 C-1 1 -1 1 0 0 Z " fill="#100F0D" transform="translate(176,23)"/>
<path d="M0 0 C3.79450934 0.39253545 5.51015791 2.24338912 8 5 C7.67 5.99 7.34 6.98 7 8 C5.68 8 4.36 8 3 8 C3 7.34 3 6.68 3 6 C2.01 5.67 1.02 5.34 0 5 C-0.75 3 -0.75 3 -1 1 C-0.67 0.67 -0.34 0.34 0 0 Z " fill="#141007" transform="translate(169,200)"/>
<path d="M0 0 C0.66 0.33 1.32 0.66 2 1 C1.67 3.31 1.34 5.62 1 8 C-1.97 8 -4.94 8 -8 8 C-8 7.34 -8 6.68 -8 6 C-6.25 4.4921875 -6.25 4.4921875 -4 2.875 C-3.2575 2.33617187 -2.515 1.79734375 -1.75 1.2421875 C-1.1725 0.83226562 -0.595 0.42234375 0 0 Z " fill="#F9F9F9" transform="translate(329,172)"/>
<path d="M0 0 C0.33 0.99 0.66 1.98 1 3 C6.94 2.67 12.88 2.34 19 2 C15.1533912 5.8466088 9.78091826 5.05641991 4.625 5.0625 C2.74995225 5.04653244 0.87491693 5.02730462 -1 5 C-0.67 3.35 -0.34 1.7 0 0 Z " fill="#DC1515" transform="translate(77,91)"/>
<path d="M0 0 C2.25245881 2.68841859 3.88213958 4.64641875 5 8 C2.03 8 -0.94 8 -4 8 C-2.87548273 5.0280615 -1.77706209 2.66559313 0 0 Z " fill="#100C05" transform="translate(178,218)"/>
<path d="M0 0 C1.09054687 0.02320313 2.18109375 0.04640625 3.3046875 0.0703125 C4.40039062 0.08835938 5.49609375 0.10640625 6.625 0.125 C7.46804688 0.14820313 8.31109375 0.17140625 9.1796875 0.1953125 C9.1796875 1.1853125 9.1796875 2.1753125 9.1796875 3.1953125 C3.69022663 4.31561064 0.34538191 3.98749219 -4.8203125 2.1953125 C-2.8203125 0.1953125 -2.8203125 0.1953125 0 0 Z " fill="#E5E5E5" transform="translate(335.8203125,44.8046875)"/>
<path d="M0 0 C-0.36512747 2.7019433 -0.69869237 4.58390852 -2.3125 6.8125 C-4 8 -4 8 -8 8 C-7.32253522 3.25774652 -4.9532836 0 0 0 Z " fill="#080503" transform="translate(188,200)"/>
<path d="M0 0 C0.66 0 1.32 0 2 0 C2 2.64 2 5.28 2 8 C0.02 8 -1.96 8 -4 8 C-4 4.06830895 -2.60580385 2.83572772 0 0 Z " fill="#EAEAEA" transform="translate(253,232)"/>
<path d="M0 0 C0 2.31 0 4.62 0 7 C-2.64 7 -5.28 7 -8 7 C-4.13157895 0 -4.13157895 0 0 0 Z " fill="#FAF9F9" transform="translate(90,173)"/>
<path d="M0 0 C-1.43294498 0.84114171 -2.87154405 1.67265687 -4.3125 2.5 C-5.51326172 3.19609375 -5.51326172 3.19609375 -6.73828125 3.90625 C-9 5 -9 5 -12 5 C-12 3.35 -12 1.7 -12 0 C-10.56359829 -0.19573608 -9.12580496 -0.38127816 -7.6875 -0.5625 C-6.88699219 -0.66691406 -6.08648437 -0.77132812 -5.26171875 -0.87890625 C-3 -1 -3 -1 0 0 Z " fill="#F6F6F6" transform="translate(27,45)"/>
<path d="M0 0 C1.65 0 3.3 0 5 0 C5.33 1.65 5.66 3.3 6 5 C4.35 5.33 2.7 5.66 1 6 C0.67 4.02 0.34 2.04 0 0 Z " fill="#0B0908" transform="translate(95,22)"/>
<path d="M0 0 C4.95 0 9.9 0 15 0 C15 1.32 15 2.64 15 4 C13.35 4 11.7 4 10 4 C9.67 3.34 9.34 2.68 9 2 C6.87423218 1.53348793 6.87423218 1.53348793 4.4375 1.375 C3.61121094 1.30023438 2.78492188 1.22546875 1.93359375 1.1484375 C1.29550781 1.09945312 0.65742188 1.05046875 0 1 C0 0.67 0 0.34 0 0 Z " fill="#EFEFEE" transform="translate(255,0)"/>
<path d="M0 0 C2.17581687 2.84881728 4.20937999 5.76084088 6.1875 8.75 C6.71730469 9.54921875 7.24710937 10.3484375 7.79296875 11.171875 C8.19128906 11.77515625 8.58960937 12.3784375 9 13 C6.64453125 12.73828125 6.64453125 12.73828125 4 12 C2.63671875 10.29296875 2.63671875 10.29296875 1.6875 8.1875 C1.19830078 7.15689453 1.19830078 7.15689453 0.69921875 6.10546875 C0 4 0 4 0 0 Z " fill="#E7E7E6" transform="translate(101,228)"/>
<path d="M0 0 C0.66 1.32 1.32 2.64 2 4 C0.38405168 6.04119788 -1.2856382 8.04072937 -3 10 C-3.66 10 -4.32 10 -5 10 C-5 9.34 -5 8.68 -5 8 C-5.66 7.67 -6.32 7.34 -7 7 C-6.21625 6.5875 -5.4325 6.175 -4.625 5.75 C-1.94108344 3.9607223 -1.11901051 2.95011861 0 0 Z " fill="#DEAE22" transform="translate(188,201)"/>
<path d="M0 0 C0 0.66 0 1.32 0 2 C-1.95890881 3.39300182 -3.9639118 4.72245446 -6 6 C-6.99 6.66 -7.98 7.32 -9 8 C-9 7.01 -9 6.02 -9 5 C-3.76744186 0 -3.76744186 0 0 0 Z " fill="#FCCA30" transform="translate(164,182)"/>
<path d="M0 0 C2 0 2 0 3.625 1.375 C5 3 5 3 5 5 C6.32 5 7.64 5 9 5 C9 5.66 9 6.32 9 7 C7.3125 7.8125 7.3125 7.8125 5 8 C2.25 5.75 2.25 5.75 0 3 C0 2.01 0 1.02 0 0 Z " fill="#E4B623" transform="translate(167,203)"/>
<path d="M0 0 C2.32472205 2.85306797 3.7508258 5.54074837 5 9 C3.68 9 2.36 9 1 9 C-0.4783226 6.04335481 -0.06032783 3.25770263 0 0 Z " fill="#E4E4E3" transform="translate(75,34)"/>
<path d="M0 0 C0.33 0.66 0.66 1.32 1 2 C1.66 2 2.32 2 3 2 C2.67 5.3 2.34 8.6 2 12 C1.01 11.34 0.02 10.68 -1 10 C-0.67 6.7 -0.34 3.4 0 0 Z " fill="#1F1D1C" transform="translate(257,8)"/>
<path d="M0 0 C3.73639216 1.24546405 4.18756513 2.63404953 6 6 C4.02 6 2.04 6 0 6 C0 4.02 0 2.04 0 0 Z " fill="#EFEFEE" transform="translate(165,279)"/>
<path d="M0 0 C2.375 0.25 2.375 0.25 5 1 C6.3125 3.0625 6.3125 3.0625 7 5 C4.69 5 2.38 5 0 5 C0 3.35 0 1.7 0 0 Z " fill="#E5E5E4" transform="translate(150,265)"/>
<path d="M0 0 C3.47132095 1.40929697 4.88093274 2.90605083 6.75 6.125 C7.39195312 7.21167969 7.39195312 7.21167969 8.046875 8.3203125 C8.51867187 9.15175781 8.51867187 9.15175781 9 10 C8.01 10.495 8.01 10.495 7 11 C7 10.34 7 9.68 7 9 C6.34 8.67 5.68 8.34 5 8 C4.690625 7.175 4.38125 6.35 4.0625 5.5 C3.711875 4.675 3.36125 3.85 3 3 C2.01 2.67 1.02 2.34 0 2 C0 1.34 0 0.68 0 0 Z " fill="#EABB23" transform="translate(199,186)"/>
<path d="M0 0 C0.33 0.66 0.66 1.32 1 2 C2.65 1.67 4.3 1.34 6 1 C7.43088528 3.86177057 6.59991697 5.93375773 6 9 C5.67 9 5.34 9 5 9 C5 7.02 5 5.04 5 3 C3.35 3 1.7 3 0 3 C0 2.01 0 1.02 0 0 Z " fill="#C01212" transform="translate(211,89)"/>
<path d="M0 0 C0.66 1.32 1.32 2.64 2 4 C-0.72842061 5.36421031 -2.60953318 4.87807211 -5.625 4.5625 C-6.62789063 4.46066406 -7.63078125 4.35882813 -8.6640625 4.25390625 C-9.43492188 4.17011719 -10.20578125 4.08632812 -11 4 C-11 3.67 -11 3.34 -11 3 C-7.37 3 -3.74 3 0 3 C0 2.01 0 1.02 0 0 Z " fill="#9E0F0F" transform="translate(116,67)"/>
<path d="M0 0 C0.33 0 0.66 0 1 0 C1.20140476 3.62528568 0.85776765 5.86501708 -1 9 C-1.66 9 -2.32 9 -3 9 C-2.01 6.03 -1.02 3.06 0 0 Z " fill="#DBDBDB" transform="translate(359,55)"/>
</svg>
